<?xml version="1.0" encoding="UTF-8"?>
<svg id="Layer_1" xmlns="http://www.w3.org/2000/svg" xmlns:xlink="http://www.w3.org/1999/xlink" version="1.1" viewBox="0 0 195.6 96.7">
  <!-- Generator: Adobe Illustrator 30.2.1, SVG Export Plug-In . SVG Version: 2.1.1 Build 1)  -->
  <defs>
    <style>
      .st0 {
        fill: url(#linear-gradient2);
      }

      .st1 {
        fill: url(#linear-gradient1);
      }

      .st2 {
        fill: url(#linear-gradient3);
      }

      .st3 {
        fill: url(#linear-gradient);
      }

      .st4 {
        fill: #cb753a;
      }

      .st5 {
        isolation: isolate;
      }

      .st6 {
        fill: #459a9c;
      }

      .st7 {
        fill: #871417;
      }

      .st8 {
        fill: #07548c;
      }

      .st9 {
        fill: #303e89;
      }

      .st10 {
        fill: #fff;
      }

      .st11 {
        fill: #19782f;
      }

      .st12 {
        fill: #a59f19;
      }

      .st13 {
        fill: #7b326b;
      }
    </style>
    <linearGradient id="linear-gradient" x1="0" y1="23.7" x2="47.4" y2="23.7" gradientUnits="userSpaceOnUse">
      <stop offset="0" stop-color="#e5e2df"/>
      <stop offset="0" stop-color="#d8d4d0"/>
      <stop offset="0" stop-color="#ccc7c2"/>
      <stop offset="0" stop-color="#bdb8b4"/>
      <stop offset=".1" stop-color="#a7a3a0"/>
      <stop offset=".5" stop-color="#e0e1e2"/>
      <stop offset=".6" stop-color="#d3d3d3"/>
      <stop offset=".8" stop-color="#b1aeac"/>
      <stop offset=".9" stop-color="#a7a3a0"/>
      <stop offset="1" stop-color="#d1d3d4"/>
      <stop offset="1" stop-color="#a7a9ac"/>
    </linearGradient>
    <linearGradient id="linear-gradient1" x1="49.4" y1="23.7" x2="96.8" y2="23.7" xlink:href="#linear-gradient"/>
    <linearGradient id="linear-gradient2" x1="148.2" y1="23.7" x2="195.6" y2="23.7" xlink:href="#linear-gradient"/>
    <linearGradient id="linear-gradient3" x1="98.8" y1="23.7" x2="146.2" y2="23.7" xlink:href="#linear-gradient"/>
  </defs>
  <path class="st3" d="M23.7,0C36.8,0,47.4,10.6,47.4,23.7s-10.6,23.7-23.7,23.7S0,36.8,0,23.7,10.6,0,23.7,0Z"/>
  <path class="st11" d="M32.4,38.8l-2.8-7.7h-12.1l-2.6,7.7h-5.5l11.5-30.3h5.6l11.5,30.3h-5.5ZM23.7,13.1h-.1c-.1.8-.2,1.6-.5,2.2l-4.1,11.7h9.3l-4.2-11.7c-.1-.4-.3-1.1-.4-2.2Z"/>
  <path class="st1" d="M73.1,0C86.2,0,96.8,10.6,96.8,23.7s-10.6,23.7-23.7,23.7-23.7-10.6-23.7-23.7S60,0,73.1,0Z"/>
  <path class="st7" d="M83.3,30c0,2.6-1,4.8-2.9,6.4-2,1.6-4.5,2.4-7.6,2.4h-9.9V8.5h9.6c2.9,0,5.2.6,6.9,1.9,1.7,1.3,2.5,3,2.5,5.1s-.5,3.1-1.5,4.3c-1,1.3-2.3,2.1-4,2.7h0c2.2.4,3.8,1.2,5.1,2.5,1.2,1.3,1.8,3,1.8,5ZM76.5,16.5c0-1.2-.5-2.1-1.3-2.8-.9-.6-2.2-1-4-1h-3.3v8.4h3.2c1.7,0,3-.4,4-1.2.9-.8,1.4-1.9,1.4-3.4ZM78,29.9c0-1.4-.5-2.6-1.6-3.4-1.1-.8-2.6-1.2-4.7-1.2h-3.8v9.4h4.2c1.8,0,3.2-.4,4.2-1.3,1-.9,1.5-2,1.5-3.5Z"/>
  <path class="st0" d="M171.9,0C185,0,195.6,10.6,195.6,23.7s-10.6,23.7-23.7,23.7-23.7-10.6-23.7-23.7S158.8,0,171.9,0Z"/>
  <path class="st12" d="M174.3,27.8v11h-5v-10.9l-9.8-19.4h5.7l6.1,12.6c.2.4.3.8.4,1.1,0,.3.2.6.3.8h0c.2-.6.4-1.3.7-1.9l6.3-12.7h5.3l-10,19.3Z"/>
  <path class="st2" d="M122.5,0C135.6,0,146.2,10.6,146.2,23.7s-10.6,23.7-23.7,23.7-23.7-10.6-23.7-23.7S109.4,0,122.5,0Z"/>
  <path class="st8" d="M129.6,38.8l-6.4-11c-.1-.3-.2-.5-.3-.8,0-.3-.1-.5-.2-.8h0c-.1.3-.2.5-.3.8,0,.2-.2.5-.3.8l-6.5,11h-6.1l10.1-15.2-9.3-15.1h6.2l5.4,10c.5.9.9,1.6,1,2.3h0c.3-.8.5-1.3.7-1.6.1-.2,2.2-3.8,6.3-10.7h5.7l-9.5,15,9.6,15.3h-6Z"/>
  <g>
    <g>
      <g id="A">
        <path class="st10" d="M23.7,49.4c13.1,0,23.7,10.6,23.7,23.7s-10.6,23.7-23.7,23.7S0,86.1,0,73.1s10.6-23.7,23.7-23.7Z"/>
      </g>
      <g class="st5">
        <path class="st13" d="M32.4,88.2l-2.8-7.7h-12.1l-2.6,7.7h-5.5l11.5-30.3h5.6l11.5,30.3h-5.5ZM23.7,62.5h-.1c-.1.8-.2,1.6-.5,2.2l-4.1,11.7h9.3l-4.2-11.7c-.1-.4-.3-1.1-.4-2.2Z"/>
      </g>
    </g>
    <g>
      <g id="B">
        <path class="st10" d="M73.1,49.4c13.1,0,23.7,10.6,23.7,23.7s-10.6,23.7-23.7,23.7-23.7-10.6-23.7-23.7,10.6-23.7,23.7-23.7Z"/>
      </g>
      <g class="st5">
        <path class="st6" d="M83.3,79.4c0,2.6-1,4.8-2.9,6.4-2,1.6-4.5,2.4-7.6,2.4h-9.9v-30.3h9.6c2.9,0,5.2.6,6.9,1.9,1.7,1.3,2.5,3,2.5,5.1s-.5,3.1-1.5,4.3c-1,1.3-2.3,2.2-4,2.7h0c2.2.4,3.8,1.2,5.1,2.5,1.2,1.3,1.8,3,1.8,5ZM76.5,65.8c0-1.2-.5-2.1-1.3-2.8-.9-.6-2.2-1-4-1h-3.3v8.4h3.2c1.7,0,3-.4,4-1.2.9-.8,1.4-1.9,1.4-3.4ZM78,79.2c0-1.4-.5-2.6-1.6-3.4-1.1-.8-2.6-1.2-4.7-1.2h-3.8v9.4h4.2c1.8,0,3.2-.4,4.2-1.3,1-.9,1.5-2,1.5-3.5Z"/>
      </g>
    </g>
    <g>
      <g id="Y">
        <path class="st10" d="M171.9,49.4c13.1,0,23.7,10.6,23.7,23.7s-10.6,23.7-23.7,23.7-23.7-10.6-23.7-23.7,10.6-23.7,23.7-23.7Z"/>
      </g>
      <g class="st5">
        <path class="st9" d="M174.3,77.2v11h-5v-10.9l-9.8-19.4h5.7l6.1,12.6c.2.4.3.8.4,1.1,0,.3.2.6.3.8h0c.2-.6.4-1.3.7-1.9l6.3-12.7h5.3l-10,19.3Z"/>
      </g>
    </g>
    <g>
      <g id="X">
        <path class="st10" d="M122.5,49.4c13.1,0,23.7,10.6,23.7,23.7s-10.6,23.7-23.7,23.7-23.7-10.6-23.7-23.7,10.6-23.7,23.7-23.7Z"/>
      </g>
      <g class="st5">
        <path class="st4" d="M129.6,88.2l-6.4-11c-.1-.3-.2-.5-.3-.8,0-.3-.1-.5-.2-.8h0c-.1.3-.2.5-.3.8,0,.2-.2.5-.3.8l-6.5,11h-6.1l10.1-15.2-9.3-15.1h6.2l5.4,10c.5.9.9,1.6,1,2.3h0c.3-.8.5-1.3.7-1.6.1-.2,2.2-3.8,6.3-10.7h5.7l-9.5,15,9.6,15.3h-6Z"/>
      </g>
    </g>
  </g>
</svg>