<?xml version="1.0" encoding="UTF-8"?>
<svg id="Layer_1" xmlns="http://www.w3.org/2000/svg" xmlns:xlink="http://www.w3.org/1999/xlink" version="1.1" viewBox="0 0 750 630.5">
  <!-- Generator: Adobe Illustrator 30.2.1, SVG Export Plug-In . SVG Version: 2.1.1 Build 1)  -->
  <defs>
    <style>
      .st0, .st1, .st2, .st3, .st4 {
        fill: none;
      }

      .st5 {
        fill: #d6d6d6;
      }

      .st6 {
        fill: #292929;
      }

      .st7 {
        fill: #e3e3e3;
      }

      .st8 {
        fill: #e6e6e6;
      }

      .st9 {
        fill: #1c1c1c;
      }

      .st1 {
        stroke: #fff;
      }

      .st1, .st2, .st3, .st4 {
        stroke-miterlimit: 10;
      }

      .st10 {
        fill: #ebebeb;
      }

      .st11 {
        fill: #dbdbdb;
      }

      .st12 {
        fill: #171717;
      }

      .st13 {
        fill: url(#linear-gradient);
      }

      .st14 {
        fill: #929493;
      }

      .st15 {
        fill: #0d0d0d;
      }

      .st16 {
        fill: #e5e5e5;
      }

      .st2 {
        stroke: #120b0b;
      }

      .st2, .st4 {
        stroke-width: 2px;
      }

      .st17 {
        clip-path: url(#clippath-1);
      }

      .st18 {
        clip-path: url(#clippath-3);
      }

      .st19 {
        clip-path: url(#clippath-4);
      }

      .st20 {
        clip-path: url(#clippath-2);
      }

      .st21 {
        clip-path: url(#clippath-5);
      }

      .st22 {
        fill: #141414;
      }

      .st23 {
        fill: #edf4f4;
      }

      .st24 {
        fill: #fff;
      }

      .st25 {
        fill: #f0f0f0;
      }

      .st26 {
        fill: #242424;
      }

      .st27 {
        fill: #080808;
      }

      .st28 {
        fill: #1a1615;
      }

      .st3 {
        stroke: #000;
      }

      .st29 {
        fill: red;
      }

      .st30 {
        fill: #0d0808;
      }

      .st31 {
        fill: #f5f5f5;
      }

      .st32 {
        fill: #0a0a0a;
      }

      .st33 {
        fill: #120b0b;
      }

      .st34 {
        fill: #191919;
      }

      .st35 {
        fill: #6d6b6c;
      }

      .st36 {
        fill: #1a1a1a;
      }

      .st37 {
        fill: #0f0f0f;
      }

      .st38 {
        clip-path: url(#clippath);
      }

      .st39 {
        fill: #e8e8e8;
      }

      .st4 {
        stroke: #140c0c;
      }
    </style>
    <linearGradient id="linear-gradient" x1="0" y1="630.5" x2="1" y2="630.5" gradientTransform="translate(0 473235.5) scale(750 -750)" gradientUnits="userSpaceOnUse">
      <stop offset="0" stop-color="#e5e2df"/>
      <stop offset="0" stop-color="#d6d6d6"/>
      <stop offset="0" stop-color="#d1d3d4"/>
      <stop offset="0" stop-color="#eceded"/>
      <stop offset=".1" stop-color="#fff"/>
      <stop offset=".1" stop-color="#f5f5f5"/>
      <stop offset=".2" stop-color="#dbdbdc"/>
      <stop offset=".2" stop-color="#b0b2b4"/>
      <stop offset=".2" stop-color="#97999c"/>
      <stop offset=".3" stop-color="#999b9e"/>
      <stop offset=".3" stop-color="#a1a3a6"/>
      <stop offset=".3" stop-color="#b0b2b4"/>
      <stop offset=".3" stop-color="#c4c6c7"/>
      <stop offset=".3" stop-color="#d1d3d4"/>
      <stop offset=".4" stop-color="#c7c9ca"/>
      <stop offset=".4" stop-color="#adafb0"/>
      <stop offset=".6" stop-color="#838486"/>
      <stop offset=".6" stop-color="#58595b"/>
      <stop offset=".7" stop-color="#616264"/>
      <stop offset=".7" stop-color="#7a7b7e"/>
      <stop offset=".7" stop-color="#808285"/>
      <stop offset=".7" stop-color="#787a7d"/>
      <stop offset=".8" stop-color="#59595b"/>
      <stop offset=".8" stop-color="#413f41"/>
      <stop offset=".8" stop-color="#302d2e"/>
      <stop offset=".8" stop-color="#262223"/>
      <stop offset=".8" stop-color="#231f20"/>
      <stop offset=".8" stop-color="#4a4748"/>
      <stop offset=".8" stop-color="#7a7778"/>
      <stop offset=".8" stop-color="#a2a1a1"/>
      <stop offset=".8" stop-color="#c4c3c3"/>
      <stop offset=".8" stop-color="#dedddd"/>
      <stop offset=".9" stop-color="#f0f0f0"/>
      <stop offset=".9" stop-color="#fbfbfb"/>
      <stop offset=".9" stop-color="#fff"/>
      <stop offset=".9" stop-color="#eaeaeb"/>
      <stop offset=".9" stop-color="#d0d1d3"/>
      <stop offset=".9" stop-color="#bdbfc1"/>
      <stop offset="1" stop-color="#b2b4b7"/>
      <stop offset="1" stop-color="#afb1b4"/>
    </linearGradient>
    <clipPath id="clippath">
      <path class="st0" d="M426.2,145.4h-102v2.1h102v-2.1"/>
    </clipPath>
    <clipPath id="clippath-1">
      <path class="st0" d="M324.2,155.6h0c25.6.6,51.4.9,51.4.9,0,0,.4,0,1.3,0-.8,0-1.3,0-1.3,0,0,0-25.8-.3-51.4-.9M426.2,147.5h-102c25.1,0,50.8,0,50.8,0h51.2"/>
    </clipPath>
    <clipPath id="clippath-2">
      <path class="st0" d="M426.2,237.4h-102v10h102v-10"/>
    </clipPath>
    <clipPath id="clippath-3">
      <path class="st0" d="M356.9,169.3h0s0,0,0,0M324.2,155.6v81.8h102v-81.8c-22,.5-44,.8-49.4.9-.8,0-1.3,0-1.3,0,0,0-25.8-.3-51.4-.9"/>
    </clipPath>
    <clipPath id="clippath-4">
      <path class="st0" d="M426.2,147.5h-102v8.1c25.6.6,51.4.9,51.4.9,0,0,.4,0,1.3,0,5.4,0,27.3-.4,49.4-.9v-8.1"/>
    </clipPath>
    <clipPath id="clippath-5">
      <polyline class="st0" points="356.9 169.3 356.9 169.3 356.9 169.3"/>
    </clipPath>
  </defs>
  <path d="M664.4,214c-6.7-16.7-20.5-20.9-21.8-22-11.7-10.3-2.5-21.2-19.9-30.7-18.3-9.9-72-37-114.2-31.4-9.2,1.2-27.8,17.6-41.2,17.6h-184.3c-13.4,0-32-16.4-41.2-17.6-42.2-5.6-95.9,21.5-114.2,31.4-17.5,9.5-8.2,20.4-19.9,30.7-1.3,1.1-15.1,5.3-21.8,22C22.9,370-1.7,469.1,0,529.1c2.9,94.4,76.6,101.3,76.6,101.3,37-8.6,111.6-129.1,168.5-129.1h259.6c57,0,131.5,120.5,168.5,129.1,0,0,73.7-6.9,76.6-101.3,1.9-60-22.8-159.1-85.5-315.2"/>
  <path class="st13" d="M531,157.2c-2.3,0-4.2.2-5.9.5-9.5,1.8-20.8,13-32.5,26.4h0c-20.3,23.3-41.6,53.3-56.5,53.3h-9.9v10h-102v-10h-9.1c-3,0-6.2-1.2-9.7-3.3,0,0,0,0,0,0,0,0,0,0,0,0,0,0,0,0,0,0,0,0,0,0,0,0-23.6-14.6-56.6-72-79.2-76.3-1.6-.3-3.5-.5-5.7-.5-24.5,0-82.5,18.4-112.9,34.8,0,0,0,0,0,0-.2.1-.5.3-.9.5,0,0-.2,0-.2.1-.4.2-.9.4-1.4.7-1.9.9-4.5,2.4-7.3,4.6-4.2,3.3-8.8,8.4-11.9,16.1C26.1,362,.9,458.8,0,519.6c0,.2,0,.4,0,.6,0,3.1,0,6.1,0,9,2.9,94.4,76.6,101.3,76.6,101.3,37-8.6,111.6-129.1,168.5-129.1h259.6c57,0,131.5,120.5,168.5,129.1,0,0,73.7-6.9,76.6-101.3,1.9-60-22.8-159.1-85.5-315.2-3.3-8.3-8.4-13.5-12.9-16.8-3-2.2-5.7-3.6-7.4-4.4-.7-.3-1.2-.6-1.4-.8,0,0,0,0,0,0-30.7-16.5-86.9-34.8-111.5-34.8"/>
  <path d="M277.7,462.1c-33.4,0-60.6-27.2-60.6-60.6s27.2-60.6,60.6-60.6,60.6,27.2,60.6,60.6c0,33.4-27.2,60.6-60.6,60.6Z"/>
  <path class="st30" d="M277.7,341.9c32.9,0,59.6,26.7,59.6,59.6s-26.7,59.6-59.6,59.6-59.6-26.7-59.6-59.6c0-32.9,26.8-59.6,59.6-59.6M277.7,339.9c-34,0-61.6,27.6-61.6,61.6s27.6,61.6,61.6,61.6,61.6-27.6,61.6-61.6c0-34-27.6-61.6-61.6-61.6Z"/>
  <path class="st22" d="M291.2,353.5h0c0-5-27.1-5-27.1,0v96c0,5,27.1,5,27.1,0,0-23.9,0-96,0-96Z"/>
  <path class="st22" d="M229.7,387.9h0c-5,0-5,27.1,0,27.1h96c5,0,5-27.1,0-27.1h-96Z"/>
  <path class="st29" d="M277.7,349.8c6.8,0,13.6,1.2,13.6,3.7h0s0,0,0,0v34.4h34.4c5,0,5,27.1,0,27.1h-34.4v34.4c0,2.5-6.8,3.7-13.6,3.7s-13.6-1.2-13.6-3.7v-34.4h-34.4c-5,0-5-27.1,0-27.1h34.4v-34.4c0-2.5,6.8-3.7,13.6-3.7M277.7,346.2c-3.8,0-7.5.4-10.2,1-5.8,1.4-7,4.2-7,6.3v30.8h-30.8c-2.1,0-4.9,1.2-6.3,7-.7,2.7-1,6.4-1,10.2s.4,7.4,1,10.2c1.4,5.8,4.2,7,6.3,7h30.8v31.9c.5,1.9,2.2,4,7,5.2,2.7.7,6.3,1,10.2,1s7.4-.4,10.2-1c5.8-1.4,7-4.2,7-6.3v-30.8h32.3l.3-.3c1.7-.7,3.4-2.5,4.5-6.6.7-2.7,1-6.4,1-10.2s-.4-7.4-1-10.2c-1.4-5.8-4.2-7-6.3-7h-30.8v-30.8c0-2.1-1.2-4.9-7-6.3-2.7-.7-6.4-1-10.2-1Z"/>
  <path class="st22" d="M277.7,452.7c-7.1,0-12.7-1.3-13-3.1h0v-34.6c0-.3-.2-.5-.5-.5h-34.4c-1.8,0-3.2-5.7-3.2-13.1s1.4-13.1,3.2-13.1h34.4c.3,0,.5-.2.5-.5v-34.4h0c0-.1,0-.4,0-.4h0c.5-.9,2.1-1.6,4.5-2.1.3,0,.6-.1.9-.2.4,0,.7-.1,1-.1h.2c.3,0,.6,0,.9-.1.3,0,.7,0,1-.1.4,0,.7,0,1,0h2.4c.4,0,.7,0,1,0,7.3,0,13.1,1.4,13.1,3.2,0,.2,0,16,0,34.4s.2.5.5.5h34.4c1.8,0,3.2,5.7,3.2,13.1s-1.4,13.1-3.2,13.1h-34.4c-.3,0-.5.2-.5.5v34.6c-.3,1.8-5.9,3.1-13.1,3.1Z"/>
  <path class="st33" d="M277.7,350.8c8.1,0,12.6,1.6,12.6,2.7h0v34.4c0,.6.4,1,1,1h34.4c1.1,0,2.7,4.8,2.7,12.6s-1.6,12.6-2.7,12.6h-34.4c-.6,0-1,.4-1,1v34.4h0c-.2,1.2-4.7,2.7-12.6,2.7s-12.4-1.5-12.6-2.7h0v-34.5c0-.6-.4-1-1-1h-34.4c-1.1,0-2.7-4.8-2.7-12.6s1.6-12.6,2.7-12.6h34.4c.6,0,1-.4,1-1v-34.4h0s0,0,0,0h0s0-.1,0-.1h0c.2-.3.9-1.2,4.2-1.8h0c.3,0,.6-.1.8-.2h0c.3,0,.6-.1.8-.1h.2c.3,0,.6-.1.9-.1h0c.3,0,.7,0,1-.1h0c.3,0,.6,0,1,0h.1c.2,0,.4,0,.6,0h.4s.2,0,.2,0c.3,0,.7,0,1,0h.1c.3,0,.7,0,1,0M277.7,349.8c-.4,0-.7,0-1.1,0h-.1c-.3,0-.7,0-1,0h-.2c-.3,0-.7,0-1,0h-.1c-.3,0-.7,0-1,0h0c-.3,0-.7,0-1,.1h0c-.3,0-.7,0-1,.1h0c-.3,0-.6,0-.9.1h0c-.3,0-.6.1-.9.2h0c-2.4.5-4.2,1.2-4.9,2.2v.2c-.1,0-.1,0-.1,0v.2s0,0,0,0h0c0,.1,0,.4,0,.4v34.4h-34.4c-5,0-5,27.1,0,27.1h34.4v34.7c.4,2.3,7,3.5,13.6,3.5s13.1-1.2,13.5-3.5v-.2c0-7.7,0-20.6,0-34.4h34.4c5,0,5-27.1,0-27.1h-34.4v-34.4h0c0-2.5-6.8-3.7-13.6-3.7Z"/>
  <path class="st26" d="M264.1,387.9l-3.6-3.6h-30.8c-.9,0-1.8.2-2.8.8l2.8,2.8s15.5,0,34.4,0Z"/>
  <path class="st6" d="M229.7,387.9h0l-2.8-2.8c-1.4.9-2.7,2.7-3.5,6.1-.7,2.7-1,6.4-1,10.2s.4,7.4,1,10.2c.8,3.4,2.2,5.2,3.5,6.1l2.8-2.8c-5,0-5-27.1,0-27.1Z"/>
  <path class="st26" d="M269.2,350.5h0c.3,0,.6-.1.9-.2h0c.3,0,.6-.1.9-.1h0c.3,0,.7,0,1-.1h0c.3,0,.7,0,1-.1h0c.3,0,.7,0,1,0h.1c.3,0,.6,0,1,0h.2c.3,0,.7,0,1,0h.1c.4,0,.7,0,1.1,0,6.8,0,13.6,1.2,13.6,3.7l2.8-2.8c-.9-1.4-2.7-2.7-6.1-3.5-2.7-.7-6.4-1-10.2-1s-7.5.4-10.2,1c-2.9.7-4.7,1.8-5.7,3l2.6,2.6c.6-1,2.4-1.7,4.9-2.2Z"/>
  <path class="st34" d="M325.7,387.9l2.8-2.8c-.9-.6-1.9-.8-2.8-.8h-30.8l-3.6,3.6c13.8,0,26.7,0,34.4,0Z"/>
  <path class="st9" d="M291.2,353.5h0s0,15.4,0,34.4l3.6-3.6v-30.8c0-.9-.2-1.8-.8-2.8l-2.8,2.8Z"/>
  <path class="st6" d="M264.1,353.5v-.2s0-.1,0-.1h0s0-.2,0-.2h0s.1-.2.1-.2l-2.6-2.6c-1,1.1-1.3,2.3-1.3,3.3v30.8l3.6,3.6c0-13.8,0-26.7,0-34.4Z"/>
  <path class="st12" d="M325.7,415h-34.4l3.6,3.6h32.3l.3-.3c.3-.1.6-.3.9-.5l-2.8-2.8Z"/>
  <path class="st37" d="M291.2,449.5l2.8,2.8c.6-.9.8-1.9.8-2.8v-30.8l-3.6-3.6v34.4Z"/>
  <path class="st37" d="M332,391.3c-.8-3.4-2.2-5.2-3.6-6.1l-2.8,2.8c5,0,5,27.1,0,27.1l2.8,2.8c1.4-.9,2.7-2.7,3.5-6.1.7-2.7,1-6.4,1-10.2,0-3.8-.4-7.4-1-10.2Z"/>
  <path class="st12" d="M291.2,449.7c-.4,2.3-7,3.5-13.5,3.5s-13.1-1.2-13.5-3.5v-.2s-2.8,2.8-2.8,2.8c.9,1.4,2.7,2.7,6.2,3.5,2.7.7,6.3,1,10.2,1s7.4-.4,10.2-1c3.4-.8,5.2-2.2,6.1-3.5l-2.8-2.8v.2Z"/>
  <path class="st9" d="M264.1,449.5h0v-34.4l-3.6,3.6v31.9c.2.5.4,1.1.8,1.7l2.8-2.8Z"/>
  <path class="st36" d="M229.7,415l-2.8,2.8c1,.6,1.9.8,2.8.8h30.8l3.6-3.6h-34.4Z"/>
  <path class="st26" d="M264.1,387.9l-3.6-3.6,3.6,3.6Z"/>
  <polygon class="st9" points="291.2 387.9 294.8 384.3 294.8 384.3 291.2 387.9"/>
  <path class="st10" d="M264.6,387.7v-34.2h0c0-.1,0-.4,0-.4h0c.5-.9,2.1-1.6,4.5-2.1.3,0,.6-.1.9-.2.4,0,.7-.1,1-.1h.2c.3,0,.6,0,.9-.1.3,0,.7,0,1-.1.4,0,.7,0,1,0h2.4c.4,0,.7,0,1,0,7.3,0,13.1,1.4,13.1,3.2,0,.2,0,15.9,0,34.2l-13.1,13.1-13.1-13.1Z"/>
  <path class="st23" d="M277.7,350.8c8.1,0,12.6,1.6,12.6,2.7h0v34l-12.6,12.6-12.6-12.6v-34h0s0,0,0,0h0s0-.1,0-.1h0c.2-.3.9-1.2,4.2-1.8h0c.3,0,.6-.1.8-.2h0c.3,0,.6-.1.8-.1h.2c.3,0,.6-.1.9-.1h0c.3,0,.7,0,1-.1h0c.3,0,.6,0,1,0h.1c.2,0,.4,0,.6,0h.4s.2,0,.2,0c.3,0,.7,0,1,0h.1c.3,0,.7,0,1,0M277.7,349.8c-.4,0-.7,0-1.1,0h-.1c-.3,0-.7,0-1,0h-.2c-.3,0-.7,0-1,0h-.1c-.3,0-.7,0-1,0h0c-.3,0-.7,0-1,.1h0c-.3,0-.7,0-1,.1h0c-.3,0-.6,0-.9.1h0c-.3,0-.6.1-.9.2h0c-2.4.5-4.2,1.2-4.9,2.2v.2c-.1,0-.1,0-.1,0v.2s0,0,0,0h0c0,.1,0,.4,0,.4v34.4l13.6,13.6,13.6-13.6v-34.4h0c0-2.5-6.8-3.7-13.6-3.7Z"/>
  <path class="st11" d="M269.2,350.5h0c.3,0,.6-.1.9-.2h0c.3,0,.6-.1.9-.1h0c.3,0,.7,0,1-.1h0c.3,0,.7,0,1-.1h0c.3,0,.7,0,1,0h.1c.3,0,.6,0,1,0h.2c.3,0,.7,0,1,0h.1c.4,0,.7,0,1.1,0,6.8,0,13.6,1.2,13.6,3.7l2.8-2.8c-.9-1.4-2.7-2.7-6.1-3.5-2.7-.7-6.4-1-10.2-1s-7.5.4-10.2,1c-2.9.7-4.7,1.8-5.7,3l2.6,2.6c.6-1,2.4-1.7,4.9-2.2Z"/>
  <path class="st7" d="M291.2,353.5h0s0,15.4,0,34.4l3.6-3.6v-30.8c0-.9-.2-1.8-.8-2.8l-2.8,2.8Z"/>
  <path class="st5" d="M264.1,353.5v-.2s0-.1,0-.1h0s0-.2,0-.2h0s.1-.2.1-.2l-2.6-2.6c-1,1.1-1.3,2.3-1.3,3.3v30.8l3.6,3.6c0-13.8,0-26.7,0-34.4Z"/>
  <path class="st37" d="M294.9,418.7l-3.6-3.6,3.6,3.6Z"/>
  <path class="st10" d="M291.4,414.5l-13.1-13.1,13.1-13.1h34.2c1.8,0,3.2,5.7,3.2,13.1s-1.4,13.1-3.2,13.1h-34.2Z"/>
  <path class="st23" d="M325.7,388.9c1.1,0,2.7,4.8,2.7,12.6s-1.6,12.6-2.7,12.6h-34l-12.6-12.6,12.6-12.6h34M325.7,387.9h-34.4l-13.6,13.6,13.6,13.6h34.4c5,0,5-27.1,0-27.1Z"/>
  <path class="st8" d="M325.7,387.9l2.8-2.8c-.9-.6-1.9-.8-2.8-.8h-30.8l-3.6,3.6c13.8,0,26.7,0,34.4,0Z"/>
  <path class="st39" d="M325.7,415h-34.4l3.6,3.6h32.3l.3-.3c.3-.1.6-.3.9-.5l-2.8-2.8Z"/>
  <path class="st25" d="M328.4,385.2l-2.8,2.8c5,0,5,27.1,0,27.1l2.8,2.8c1.4-.9,2.7-2.7,3.5-6.1.7-2.7,1-6.4,1-10.2s-.4-7.4-1-10.2c-.8-3.4-2.2-5.2-3.6-6.1Z"/>
  <path class="st10" d="M277.7,452.7c-7.1,0-12.7-1.3-13-3.1h0v-34.4l13.1-13.1,13.1,13.1v34.4c-.3,1.8-5.9,3.1-13.1,3.1Z"/>
  <path class="st23" d="M277.7,402.9l12.6,12.6v34h0c-.2,1.2-4.7,2.7-12.6,2.7s-12.4-1.5-12.6-2.7h0v-34.1l12.6-12.6M277.7,401.5l-13.6,13.6v34.7c.4,2.3,7,3.5,13.6,3.5s13.1-1.2,13.5-3.5v-.2c0-7.7,0-20.6,0-34.4l-13.6-13.6Z"/>
  <path class="st25" d="M291.2,449.5l2.8,2.8c.6-.9.8-1.9.8-2.8v-30.8l-3.6-3.6v34.4Z"/>
  <path class="st39" d="M291.2,449.7c-.4,2.3-7,3.5-13.5,3.5s-13.1-1.2-13.5-3.5v-.2s-2.8,2.8-2.8,2.8c.9,1.4,2.7,2.7,6.2,3.5,2.7.7,6.3,1,10.2,1s7.4-.4,10.2-1c3.4-.8,5.2-2.2,6.1-3.5l-2.8-2.8v.2Z"/>
  <path class="st7" d="M264.1,449.5h0v-34.4l-3.6,3.6v31.9c.2.5.4,1.1.8,1.7l2.8-2.8Z"/>
  <path class="st10" d="M229.7,414.5c-1.8,0-3.2-5.7-3.2-13.1s1.4-13.1,3.2-13.1h34.2l13.1,13.1-13.1,13.1h-34.2Z"/>
  <path class="st23" d="M263.7,388.9l12.6,12.6-12.6,12.6h-34c-1.1,0-2.7-4.8-2.7-12.6s1.6-12.6,2.7-12.6h34M264.1,387.9h-34.4c-5,0-5,27.1,0,27.1h34.4l13.6-13.6-13.6-13.6Z"/>
  <path class="st11" d="M264.1,387.9l-3.6-3.6h-30.8c-.9,0-1.8.2-2.8.8l2.8,2.8s15.5,0,34.4,0Z"/>
  <path class="st5" d="M229.7,387.9h0l-2.8-2.8c-1.4.9-2.7,2.7-3.5,6.1-.7,2.7-1,6.4-1,10.2s.4,7.4,1,10.2c.8,3.4,2.2,5.2,3.5,6.1l2.8-2.8c-5,0-5-27.1,0-27.1Z"/>
  <path class="st16" d="M229.7,415l-2.8,2.8c1,.6,1.9.8,2.8.8h30.8l3.6-3.6h-34.4Z"/>
  <path class="st28" d="M448.9,280.4c0,10.4-8.4,18.8-18.8,18.8s-18.8-8.4-18.8-18.8,8.4-18.8,18.8-18.8c10.4,0,18.8,8.4,18.8,18.8Z"/>
  <path class="st32" d="M446.2,280.4c0,8.9-7.2,16.1-16.1,16.1s-16.1-7.2-16.1-16.1,7.2-16.1,16.1-16.1c8.9,0,16.1,7.2,16.1,16.1Z"/>
  <path class="st3" d="M446.2,280.4c0,8.9-7.2,16.1-16.1,16.1s-16.1-7.2-16.1-16.1,7.2-16.1,16.1-16.1c8.9,0,16.1,7.2,16.1,16.1Z"/>
  <rect class="st35" x="422.9" y="275.7" width="14.4" height="1.6"/>
  <rect class="st35" x="422.9" y="279.7" width="14.4" height="1.6"/>
  <rect class="st35" x="422.9" y="283.5" width="14.4" height="1.5"/>
  <path class="st31" d="M446.2,280.4c0,8.9-7.2,16.1-16.1,16.1s-16.1-7.2-16.1-16.1,7.2-16.1,16.1-16.1c8.9,0,16.1,7.2,16.1,16.1Z"/>
  <path class="st1" d="M446.2,280.4c0,8.9-7.2,16.1-16.1,16.1s-16.1-7.2-16.1-16.1,7.2-16.1,16.1-16.1c8.9,0,16.1,7.2,16.1,16.1Z"/>
  <rect class="st14" x="422.9" y="275.7" width="14.4" height="1.6"/>
  <rect class="st14" x="422.9" y="279.7" width="14.4" height="1.6"/>
  <rect class="st14" x="422.9" y="283.5" width="14.4" height="1.5"/>
  <path class="st28" d="M340.9,280.4c0,10.4-8.4,18.8-18.8,18.8s-18.8-8.4-18.8-18.8,8.4-18.8,18.8-18.8c10.4,0,18.8,8.4,18.8,18.8Z"/>
  <path class="st32" d="M338.2,280.4c0,8.9-7.2,16.1-16.1,16.1s-16.1-7.2-16.1-16.1,7.2-16.1,16.1-16.1c8.9,0,16.1,7.2,16.1,16.1Z"/>
  <path class="st3" d="M338.2,280.4c0,8.9-7.2,16.1-16.1,16.1s-16.1-7.2-16.1-16.1,7.2-16.1,16.1-16.1c8.9,0,16.1,7.2,16.1,16.1Z"/>
  <polygon class="st35" points="319.6 280.3 316.6 280.3 316.6 276.5 322 276.5 322 277.8 323.8 277.8 323.8 274.7 315 274.7 315 282.1 319.6 282.1 319.6 280.3"/>
  <path class="st35" d="M320.4,278.4v7.6h9v-7.6h-9ZM327.5,284.2h-5.5v-3.9h5.5v3.9Z"/>
  <path class="st27" d="M185.5,351.5c-37.3,0-67.7-30.4-67.7-67.7s30.4-67.7,67.7-67.7,67.7,30.4,67.7,67.7-30.4,67.7-67.7,67.7Z"/>
  <path class="st4" d="M185.5,351.5c-37.3,0-67.7-30.4-67.7-67.7s30.4-67.7,67.7-67.7,67.7,30.4,67.7,67.7-30.4,67.7-67.7,67.7Z"/>
  <path d="M241.6,279.9c0,31-25.1,56.1-56.1,56.1s-56.1-25.1-56.1-56.1,25.1-56.1,56.1-56.1c31,0,56.1,25.1,56.1,56.1Z"/>
  <path class="st2" d="M241.6,279.9c0,31-25.1,56.1-56.1,56.1s-56.1-25.1-56.1-56.1,25.1-56.1,56.1-56.1c31,0,56.1,25.1,56.1,56.1Z"/>
  <path class="st27" d="M473,465.5c-37.3,0-67.7-30.4-67.7-67.7s30.4-67.7,67.7-67.7,67.7,30.4,67.7,67.7-30.4,67.7-67.7,67.7Z"/>
  <path class="st4" d="M473,465.5c-37.3,0-67.7-30.4-67.7-67.7s30.4-67.7,67.7-67.7,67.7,30.4,67.7,67.7-30.4,67.7-67.7,67.7Z"/>
  <path d="M529.2,393.8c0,31-25.1,56.1-56.1,56.1s-56.1-25.1-56.1-56.1,25.1-56.1,56.1-56.1,56.1,25.1,56.1,56.1Z"/>
  <path class="st2" d="M529.2,393.8c0,31-25.1,56.1-56.1,56.1s-56.1-25.1-56.1-56.1,25.1-56.1,56.1-56.1,56.1,25.1,56.1,56.1Z"/>
  <path class="st32" d="M566.8,355.3c-13.9,0-25.2-11.3-25.2-25.2s11.3-25.2,25.2-25.2,25.2,11.3,25.2,25.2-11.3,25.2-25.2,25.2Z"/>
  <path class="st28" d="M566.8,306.4c13.1,0,23.7,10.6,23.7,23.7s-10.6,23.7-23.7,23.7-23.7-10.6-23.7-23.7c0-13.1,10.6-23.7,23.7-23.7M566.8,303.4c-14.7,0-26.7,12-26.7,26.7s12,26.7,26.7,26.7,26.7-12,26.7-26.7-12-26.7-26.7-26.7Z"/>
  <path class="st32" d="M566.8,254.2c-13.9,0-25.2-11.3-25.2-25.2s11.3-25.2,25.2-25.2,25.2,11.3,25.2,25.2-11.3,25.2-25.2,25.2Z"/>
  <path class="st28" d="M566.8,205.3c13.1,0,23.7,10.6,23.7,23.7s-10.6,23.7-23.7,23.7-23.7-10.6-23.7-23.7c0-13.1,10.6-23.7,23.7-23.7M566.8,202.3c-14.7,0-26.7,12-26.7,26.7s12,26.7,26.7,26.7,26.7-12,26.7-26.7-12-26.7-26.7-26.7Z"/>
  <path class="st32" d="M617.3,304.7c-13.9,0-25.2-11.3-25.2-25.2s11.3-25.2,25.2-25.2,25.2,11.3,25.2,25.2-11.3,25.2-25.2,25.2Z"/>
  <path class="st28" d="M617.3,255.8c13.1,0,23.7,10.6,23.7,23.7s-10.6,23.7-23.7,23.7-23.7-10.6-23.7-23.7c0-13.1,10.6-23.7,23.7-23.7M617.3,252.8c-14.7,0-26.7,12-26.7,26.7s12,26.7,26.7,26.7,26.7-12,26.7-26.7-12-26.7-26.7-26.7Z"/>
  <path class="st32" d="M516.2,304.7c-13.9,0-25.2-11.3-25.2-25.2s11.3-25.2,25.2-25.2,25.2,11.3,25.2,25.2-11.3,25.2-25.2,25.2Z"/>
  <path class="st28" d="M516.2,255.8c13.1,0,23.7,10.6,23.7,23.7s-10.6,23.7-23.7,23.7-23.7-10.6-23.7-23.7c0-13.1,10.6-23.7,23.7-23.7M516.2,252.8c-14.7,0-26.7,12-26.7,26.7s12,26.7,26.7,26.7,26.7-12,26.7-26.7-12-26.7-26.7-26.7Z"/>
  <path class="st36" d="M375.6,156.5s-88.9-1.1-100.5-3l-16.4,30.5c20.2,23.3,41.6,53.3,56.4,53.3h121c14.9,0,36.2-30,56.5-53.3l-16.4-30.5c-11.6,1.9-100.6,3-100.6,3"/>
  <path class="st15" d="M476.2,153.5l-3.6-6.8c-1.9.5-3.7.7-5.4.7h-184.3c-1.4,0-2.8-.2-4.3-.5l-3.5,6.5c11.6,1.9,100.5,3,100.5,3,0,0,88.9-1.1,100.6-3"/>
  <path class="st36" d="M642.5,192c-9-7.9-5.6-16.2-11.5-23.8.2.3.5.7.7,1,0,0-96.5-42.1-120.8-34.5-15.6,4.9-27.2,15.3-32.8,18.2l15.9,29.6c11.2-12.7,21.9-23,31.1-24.8,20-3.8,83.9,16.3,117.5,34.3h0Z"/>
  <path class="st15" d="M511,134.6c24.3-7.6,120.8,34.5,120.8,34.5-.2-.3-.5-.7-.7-1h0c-.1-.3-.2-.4-.3-.5v-.2c-.2,0-.3-.2-.4-.3l-.2-.2c0-.1-.2-.2-.3-.3l-.2-.2c0-.1-.2-.2-.3-.3l-.2-.2c-.1,0-.2-.2-.3-.3l-.2-.2c0-.1-.2-.2-.3-.3l-.2-.2c-.1,0-.2-.2-.3-.3l-.3-.2c0,0-.2-.2-.3-.3,0,0-.2-.1-.3-.2-.1,0-.2-.2-.4-.3,0,0-.2-.1-.3-.2-.1,0-.3-.2-.4-.3-.1,0-.2-.1-.3-.2-.1,0-.3-.2-.4-.3-.1,0-.2-.1-.3-.2-.2,0-.3-.2-.5-.3-.1,0-.2-.1-.3-.2-.2-.1-.4-.2-.5-.3,0,0-.2-.1-.3-.2-.3-.2-.6-.3-.8-.5-18.3-9.9-72-37-114.2-31.4-7.6,1-21.6,12.3-33.8,16.3l3.6,6.7c5.6-2.9,17.3-13.4,32.8-18.2Z"/>
  <path class="st15" d="M241.6,129.9c-42.2-5.6-95.9,21.5-114.2,31.4-.3.2-.6.3-.8.5,0,0-.2.1-.2.2-.2,0-.4.2-.5.3,0,0-.2.1-.3.2-.1.1-.3.2-.5.3,0,0-.2.1-.3.2-.1,0-.3.2-.4.3,0,0-.2.1-.3.2-.1,0-.3.2-.4.3,0,0-.2.1-.3.2-.1,0-.3.2-.4.3l-.2.2c-.1.1-.2.2-.4.3l-.2.2c-.1.1-.2.2-.3.3l-.2.2c-.1,0-.2.2-.3.3l-.2.2c-.1.1-.2.2-.3.3l-.2.2c0,.1-.2.2-.3.3v.2c-.2.1-.4.2-.4.3h-.1c-.1.2-.2.4-.3.5h0c-.1.2-.2.4-.3.5h0c-.1.2-.2.4-.3.5h0c-.1.2-.2.4-.3.5,0,0,97.7-42,122-34.4,15.5,4.9,27.2,15.3,32.8,18.2l3.4-6.3c-12.4-3.6-27-15.6-34.9-16.6Z"/>
  <path class="st36" d="M273.6,153.1c.2,0,.3.1.5.2-.2,0-.3-.1-.5-.2Z"/>
  <path class="st36" d="M273.1,152.8c-5.6-2.9-17.3-13.4-32.8-18.2-24.2-7.6-121.3,34.1-122,34.4-5,7.4-2.2,15.3-10.8,23h0c33.2-17.8,99.2-38.1,118.7-34.3,9.1,1.8,19.9,12.1,31.1,24.8l15.9-29.6h0Z"/>
  <path d="M273.1,152.8c.2,0,.3.2.5.2-.2,0-.3-.2-.5-.2Z"/>
  <path d="M258,183.2c.2.3.5.6.7.8l16.4-30.5,3.5-6.5c-.3,0-.7-.1-1-.2-.3,0-.7-.2-1-.3l-3.4,6.3-15.9,29.6c.2.3.5.5.7.8"/>
  <path d="M478.1,152.8l-3.6-6.7c-.3,0-.7.2-1,.3-.3,0-.7.2-1,.3l3.6,6.8,16.4,30.5c.2-.3.5-.5.7-.8.2-.3.5-.5.7-.8l-15.9-29.6Z"/>
  <polyline class="st36" points="356.9 169.3 356.9 169.3 356.9 169.3"/>
  <g class="st38">
    <image width="104" height="4" transform="translate(323.2 144.4)" xlink:href="base-1.png"/>
  </g>
  <g class="st17">
    <image width="104" height="11" transform="translate(323.2 146.4)" xlink:href="base-2.png"/>
  </g>
  <g class="st20">
    <image width="104" height="12" transform="translate(323.2 236.4)" xlink:href="base-3.png"/>
  </g>
  <g class="st18">
    <image width="104" height="84" transform="translate(323.2 154.4)" xlink:href="base-4.png"/>
  </g>
  <g class="st19">
    <image width="104" height="11" transform="translate(323.2 146.4)" xlink:href="base-5.png"/>
  </g>
  <g class="st21">
    <image width="3" height="3" transform="translate(356.2 168.4)" xlink:href="base-6.png"/>
  </g>
  <path class="st24" d="M407.6,196.4c0,18-14.6,32.6-32.6,32.6s-32.6-14.6-32.6-32.6,14.6-32.6,32.6-32.6,32.6,14.6,32.6,32.6Z"/>
  <path class="st36" d="M549.1,5.5c-.4-.3-.8-.6-1.2-.9l-2.3,110,53.3,7.2c-12.1-116.8-43-111-49.7-116.3Z"/>
  <path class="st22" d="M522,.1c-10.8.4-12.1,11.4-12.2,15.2v1.2s2.9,40.7,0,93.1c9.9,2.3,38.5,5.3,38.5,5.3,0,0,0-20.9.7-50.6.8-37.5-1.2-59.8-1.2-59.8-6.4-4.5-13.6-4.9-25.8-4.4Z"/>
  <path class="st36" d="M201,5.5c.4-.3.8-.6,1.2-.9l2.3,110-53.2,7.2C163.3,5,194.2,10.8,201,5.5Z"/>
  <path class="st22" d="M228,.1c10.8.4,12.1,11.4,12.2,15.2v1.2s-2.9,40.7,0,93.1c-9.9,2.3-38.5,5.3-38.5,5.3,0,0,0-20.9-.7-50.6-.8-37.5,1.2-59.8,1.2-59.8C208.6,0,215.8-.3,228,.1Z"/>
  <path d="M395.5,174.5c-.6,2-1.6,4.9-2.4,6.9-.7,2.2-1.5,4.5-2.4,6.7,0-.1-.5,1.3-.3.9-3.6,9.5-7,19-10.7,28.5-.7,2.1-1.7,4.3-2.4,6.4-.2.5-.7,1.8-.9,2.4-.2.5-.4,1.3-.7,1.9l-.2.5v.3c-.1,0-.3,0-.3,0h-.2c0,0-.1-.6-.1-.6-2.1-7.7-4.2-15.5-6.3-23.2-.3-1.1-.8-2.9-1.1-4h.1c0-.1.2.4.2.4.7,1.7,3,3.9,4.1,1.2.7-1.8.6-3.9.5-5.8-.5-4.6-1.8-9.3-3.1-13.8-.9-3-1.9-6.1-3.2-8.9-.8-1.6-2.8-4.6-3.7-1.3-.5,2.2-.3,4.5-.2,6.7.1,1.2.2,2.7.5,3.8.3,2.1.6,4.2,1.1,6.3.8,3.9,1.9,8,3,11.9,1,3.7,2.2,7.4,3.3,11.1.3.9.5,2,.8,2.9.3,1.1.7,2.5,1,3.5,0,.7-.8-1.8-.8-1.8-.3-1-.8-2.2-1.1-3.2-1.2-3.3-2.4-6.8-3.5-10-3-8.6-6-17.3-9.1-25.9,0,.1-.3-1-.3-.9-.6-1.6-1.2-3.4-1.8-5,0-.3-.7-1.9-.7-2.2,0-.2-.3-.2-.3-.9h0c0,0,.3-.3.3-.3,2.6.7,5.6.4,8.2,1.2,2.9.5,4,4.5,5,6.8.9,2.5,1.8,5.1,2.5,7.7,1.3,4.3,2.4,8.9,2.7,13.4,0,.9,0,2.2,0,3,0,.4,0,.9,0,1.3.2.5.5-.6.6-.7,1.1-3.9,0-8.1-1.1-11.9.1,0,.2,0,.2.2.5,1.1,1.6,2.7,2.8,3.2,3.4,1.3,7.3-4.5,9.4-6.7,2.2-2.6,4.7-5.6,6.8-8.2.5-.5,1.4-1.6,1.9-2.2.5-.5,1.1-1.4,1.8-1.7h0ZM376.5,216c3.3-1.9,6.6-10.6,8.1-14.3,2.3-5.8,4.7-11.6,6.8-17.5.4-1.1.9-2.3,1.2-3.4.3-.8.5-1.4.8-2.1.1-.3.3-1,.5-1.3,0-.1-.1-.2-.2-.1l-.3.4c-.1.2-.6.8-.8,1-5.9,7.6-11.7,15.6-17.6,23.3-1,1.6-1.7,3.4-2.1,5.2-.1.6-.3,1.1-.2,1.7-.3,2.2.3,8.5,3.7,7.1h0Z"/>
</svg>