<?xml version="1.0" encoding="UTF-8"?>
<svg id="Layer_1" xmlns="http://www.w3.org/2000/svg" xmlns:xlink="http://www.w3.org/1999/xlink" version="1.1" viewBox="0 0 750 630.5">
  <!-- Generator: Adobe Illustrator 30.2.1, SVG Export Plug-In . SVG Version: 2.1.1 Build 1)  -->
  <defs>
    <style>
      .st0, .st1, .st2, .st3, .st4 {
        fill: none;
      }

      .st5 {
        fill: #d6d6d6;
      }

      .st6 {
        fill: #292929;
      }

      .st7 {
        fill: #e3e3e3;
      }

      .st8 {
        fill: #e6e6e6;
      }

      .st9 {
        fill: #1c1c1c;
      }

      .st1 {
        stroke: #fff;
      }

      .st1, .st2, .st3, .st4 {
        stroke-miterlimit: 10;
      }

      .st10 {
        fill: #ebebeb;
      }

      .st11 {
        fill: #dbdbdb;
      }

      .st12 {
        fill: #171717;
      }

      .st13 {
        fill: url(#linear-gradient);
      }

      .st14 {
        fill: #929493;
      }

      .st15 {
        fill: #0d0d0d;
      }

      .st16 {
        fill: #e5e5e5;
      }

      .st17 {
        clip-path: url(#clippath-17);
      }

      .st18 {
        clip-path: url(#clippath-19);
      }

      .st19 {
        clip-path: url(#clippath-11);
      }

      .st20 {
        clip-path: url(#clippath-16);
      }

      .st21 {
        clip-path: url(#clippath-18);
      }

      .st22 {
        clip-path: url(#clippath-10);
      }

      .st23 {
        clip-path: url(#clippath-15);
      }

      .st24 {
        clip-path: url(#clippath-13);
      }

      .st25 {
        clip-path: url(#clippath-14);
      }

      .st26 {
        clip-path: url(#clippath-12);
      }

      .st27 {
        clip-path: url(#clippath-20);
      }

      .st28 {
        clip-path: url(#clippath-21);
      }

      .st2 {
        stroke: #120b0b;
      }

      .st2, .st4 {
        stroke-width: 2px;
      }

      .st29 {
        clip-path: url(#clippath-1);
      }

      .st30 {
        clip-path: url(#clippath-3);
      }

      .st31 {
        clip-path: url(#clippath-4);
      }

      .st32 {
        clip-path: url(#clippath-2);
      }

      .st33 {
        clip-path: url(#clippath-7);
      }

      .st34 {
        clip-path: url(#clippath-6);
      }

      .st35 {
        clip-path: url(#clippath-9);
      }

      .st36 {
        clip-path: url(#clippath-8);
      }

      .st37 {
        clip-path: url(#clippath-5);
      }

      .st38 {
        fill: #141414;
      }

      .st39 {
        fill: #edf4f4;
      }

      .st40 {
        fill: #fff;
      }

      .st41 {
        fill: #f0f0f0;
      }

      .st42 {
        fill: #242424;
      }

      .st43 {
        fill: #080808;
      }

      .st44 {
        fill: #1a1615;
      }

      .st3 {
        stroke: #000;
      }

      .st45 {
        fill: red;
      }

      .st46 {
        fill: #0d0808;
      }

      .st47 {
        fill: #f5f5f5;
      }

      .st48 {
        fill: #0a0a0a;
      }

      .st49 {
        fill: #120b0b;
      }

      .st50 {
        fill: #191919;
      }

      .st51 {
        fill: #6d6b6c;
      }

      .st52 {
        fill: #1a1a1a;
      }

      .st53 {
        fill: #0f0f0f;
      }

      .st54 {
        clip-path: url(#clippath);
      }

      .st55 {
        fill: #e8e8e8;
      }

      .st4 {
        stroke: #140c0c;
      }
    </style>
    <linearGradient id="linear-gradient" x1="0" y1="630.5" x2="1" y2="630.5" gradientTransform="translate(.1 472953.5) scale(749.5 -749.5)" gradientUnits="userSpaceOnUse">
      <stop offset="0" stop-color="#4d5760"/>
      <stop offset="0" stop-color="#4d5760"/>
      <stop offset=".5" stop-color="#1e2021"/>
      <stop offset=".7" stop-color="#292c2f"/>
      <stop offset="1" stop-color="#41474f"/>
      <stop offset="1" stop-color="#41474f"/>
    </linearGradient>
    <clipPath id="clippath">
      <polyline class="st0" points="426.2 145.4 324.2 145.4 324.2 147.5 426.2 147.5 426.2 145.4"/>
    </clipPath>
    <clipPath id="clippath-1">
      <polyline class="st0" points="426.2 145.4 324.2 145.4 324.2 147.4 426.2 147.4 426.2 145.4"/>
    </clipPath>
    <clipPath id="clippath-2">
      <polyline class="st0" points="426.2 147.4 324.2 147.4 324.2 147.5 324.2 147.5 426.2 147.5 426.2 147.4"/>
    </clipPath>
    <clipPath id="clippath-3">
      <polyline class="st0" points="426.2 237.5 324.2 237.5 324.2 247.4 426.2 247.4 426.2 237.5"/>
    </clipPath>
    <clipPath id="clippath-4">
      <polyline class="st0" points="426.2 237.5 324.2 237.5 324.3 237.5 324.3 247.4 426.2 247.4 426.2 237.5"/>
    </clipPath>
    <clipPath id="clippath-5">
      <polyline class="st0" points="324.3 237.5 324.2 237.5 324.2 247.4 324.3 247.4 324.3 237.5"/>
    </clipPath>
    <clipPath id="clippath-6">
      <path class="st0" d="M426.2,237.4h-102c19.2.1,51.4.1,51.4.1h50.6"/>
    </clipPath>
    <clipPath id="clippath-7">
      <path class="st0" d="M426.2,237.4h-102c19.2.1,51.4.1,51.4.1h50.6"/>
    </clipPath>
    <clipPath id="clippath-8">
      <path class="st0" d="M324.2,155.6v81.8h102v-81.8c-22,.5-44,.8-49.4.9h-1.3s-25.8-.3-51.4-.9h0"/>
    </clipPath>
    <clipPath id="clippath-9">
      <path class="st0" d="M324.2,155.6h0s0,0,0,0h0"/>
    </clipPath>
    <clipPath id="clippath-10">
      <path class="st0" d="M426.2,155.6c-4.2,0-8.5.2-12.6.3,4.1,0,8.3-.2,12.6-.3h0"/>
    </clipPath>
    <clipPath id="clippath-11">
      <polyline class="st0" points="426.2 237.3 324.2 237.3 324.2 237.4 426.2 237.4 426.2 237.3"/>
    </clipPath>
    <clipPath id="clippath-12">
      <path class="st0" d="M356.2,171.4v-3h3v3h-3M324.2,155.6v81.7h102v-81.7c-4.2,0-8.5.2-12.6.3-17.3.4-32.4.6-36.7.6h-1.3,1.3-1.4s-25.7-.3-51.3-.9"/>
    </clipPath>
    <clipPath id="clippath-13">
      <path class="st0" d="M375.6,156.5h0M376.9,156.5h-1.3,1.3"/>
    </clipPath>
    <clipPath id="clippath-14">
      <path class="st0" d="M426.2,147.5h-102v8.1c25.6.6,51.4.9,51.4.9h1.3c5.4,0,27.3-.4,49.4-.9v-8.1h0"/>
    </clipPath>
    <clipPath id="clippath-15">
      <path class="st0" d="M324.2,155.5h0c25.6.7,51.4,1,51.4,1h0s2.7,0,7.2,0c9.3-.1,26.4-.4,43.4-.8h0s0,0,0,0h0c-25.4.5-50.7.8-50.7.8,0,0-25.8-.3-51.4-.9"/>
    </clipPath>
    <clipPath id="clippath-16">
      <path class="st0" d="M382.8,156.4c-4.5,0-7.2,0-7.2,0h1.2c1.2,0,3.3,0,6,0M324.2,155.6h0c25.6.6,51.4.9,51.4.9,0,0-25.8-.3-51.4-.9"/>
    </clipPath>
    <clipPath id="clippath-17">
      <path class="st0" d="M426.3,147.5h-102.1v8c25.6.6,51.4.9,51.4.9,0,0,25.3-.3,50.7-.9v-8"/>
    </clipPath>
    <clipPath id="clippath-18">
      <path class="st0" d="M426.2,147.5h-102,102"/>
    </clipPath>
    <clipPath id="clippath-19">
      <path class="st0" d="M426.2,155.6c-17,.4-34,.7-43.4.8,7-.1,18.4-.3,30.8-.5,4.1,0,8.3-.2,12.6-.3h0"/>
    </clipPath>
    <clipPath id="clippath-20">
      <path class="st0" d="M413.6,155.9c-12.5.2-23.8.4-30.8.5-2.7,0-4.8,0-6,0h0c4.4,0,19.5-.3,36.7-.6"/>
    </clipPath>
    <clipPath id="clippath-21">
      <polyline class="st0" points="359.2 168.4 356.2 168.4 356.2 171.4 359.2 171.4 359.2 168.4"/>
    </clipPath>
  </defs>
  <path d="M664.4,214c-6.7-16.7-20.5-20.9-21.8-22-11.7-10.3-2.5-21.2-19.9-30.7-18.3-9.9-72-37-114.2-31.4-9.2,1.2-27.8,17.6-41.2,17.6h-184.3c-13.4,0-32-16.4-41.2-17.6-42.2-5.6-95.9,21.5-114.2,31.4-17.5,9.5-8.2,20.4-19.9,30.7-1.3,1.1-15.1,5.3-21.8,22C22.9,370-1.7,469.1,0,529.1c2.9,94.4,76.6,101.3,76.6,101.3,37-8.6,111.6-129.1,168.5-129.1h259.6c57,0,131.5,120.5,168.5,129.1,0,0,73.7-6.9,76.6-101.3,1.9-60-22.8-159.1-85.5-315.2h.1"/>
  <path class="st13" d="M530.9,157.2s0,0-.1,0h.2c-2.3,0-4.2.3-5.9.6-9.7,1.9-21.3,13.5-33.3,27.4-12,13.9-24.3,29.9-35.4,40.5-7.4,7.1-14.3,11.8-20.2,11.8h-9.9v9.9h-102.1v-9.9h-9c-8.9,0-19.9-10.5-31.7-23.9-11.8-13.4-24.2-29.7-35.8-41.2-7.7-7.7-15.1-13.3-21.5-14.5-1.6-.3-3.5-.5-5.7-.5-24.5,0-82.5,18.4-112.9,34.8-.2.2-.6.4-1.2.7-1.8.8-5.1,2.4-8.7,5.3-3.7,2.9-7.7,7.2-10.8,13.4-.4.8-.8,1.7-1.1,2.6-2.5,6.1-4.9,12.1-7.2,18.1-6.9,17.4-13.3,34.1-19.2,50.1C17.8,395,.2,472.1.2,522.9v6.3c1.2,38.3,14,62.2,28.8,77,17.1,17.1,36.8,22.2,44.4,23.6,1.9.3,3,.5,3.1.5,9.2-2.1,20.8-11.3,33.9-23.8,13.1-12.5,27.6-28.4,42.8-44,30.4-31.2,63.3-61.4,91.8-61.4h259.6c21.4,0,45.3,17,68.7,38.6,2.6,2.4,5.2,4.8,7.7,7.3,20.4,19.7,40.3,42,57.5,58.7.2.2.5.5.7.7,13.1,12.5,24.7,21.6,33.9,23.8h.8s0,0,.1,0c.3,0,.8-.1,1.4-.2.2,0,.5-.1.8-.2,2-.4,4.9-1,8.4-2.1,6.9-2.1,16.2-5.9,25.6-12.7,18.8-13.5,37.9-38.8,39.3-86v-6.4c0-60.5-25.1-158.1-85.6-308.7h0,0c-3.3-8.3-8.4-13.5-12.8-16.7-3-2.2-5.7-3.6-7.4-4.4-.8-.4-1.3-.6-1.5-.8-30.7-16.5-86.7-34.7-111.4-34.8"/>
  <path d="M664.4,214h0c-3.4-8.4-8.5-13.6-12.9-16.9-3-2.2-5.8-3.6-7.4-4.4-.8-.4-1.3-.6-1.5-.8-30.8-16.5-86.9-34.8-111.6-34.8s-4.3.2-6,.5c-6.6,1.3-13.9,6.9-21.6,14.6-11.6,11.6-24.1,27.9-35.8,41.2-11.7,13.4-22.8,23.9-31.5,23.9h-121c-5.8,0-12.6-4.6-20-11.7-11.1-10.6-23.4-26.7-35.4-40.5-12-13.9-23.6-25.6-33.5-27.5-1.6-.3-3.6-.5-5.8-.5-24.5,0-82.6,18.4-113.1,34.8-.2,0-.6.4-1.1.6,0,.1,0,0,0,0-1.8.8-5.1,2.4-8.7,5.3-4.2,3.3-8.8,8.4-11.9,16.1C24.9,364.6,0,462.2,0,522.8v6.3c1.4,47.2,20.6,72.6,39.4,86.2,18.8,13.5,37.3,15.3,37.3,15.3,9.3-2.2,20.9-11.3,34-23.8,19.6-18.8,42.6-45.1,66-66.7,23.4-21.6,47.2-38.6,68.5-38.6h259.6c28.4,0,61.3,30.1,91.7,61.3,15.2,15.6,29.8,31.5,42.8,44,13.1,12.5,24.7,21.7,34,23.8,0,0,18.5-1.7,37.3-15.3,18.8-13.5,38-38.9,39.4-86.2v-6.4c0-60.6-25.1-158.2-85.6-308.8h-.2c60.5,150.6,85.6,248.2,85.6,308.7v6.4c-1.4,47.2-20.6,72.5-39.3,86-9.4,6.8-18.7,10.6-25.6,12.7-3.5,1.1-6.4,1.7-8.4,2.1-1,.2-1.8.3-2.3.4-.5,0-.8,0-.8,0s0,0,0,0c-9.2-2.1-20.8-11.3-33.9-23.8-19.6-18.8-42.6-45.1-66-66.7-23.4-21.6-47.3-38.6-68.7-38.6H245.2c-28.6,0-61.4,30.2-91.8,61.4-15.2,15.6-29.8,31.5-42.8,44-13.1,12.5-24.7,21.6-33.9,23.8,0,.1,0,0,0,0,0,0-1.1,0-3.2-.5-14.1-2.6-70.8-18.2-73.3-100.7v-6.3c0-60.5,25-158.1,85.6-308.8,3.1-7.7,7.7-12.7,11.9-16,3.6-2.8,6.9-4.4,8.7-5.3.5-.3.9-.5,1.2-.7,30.4-16.4,88.5-34.8,112.9-34.8s4.1.1,5.7.5c6.5,1.2,13.8,6.8,21.5,14.5,11.6,11.6,24,27.8,35.8,41.2,11.8,13.4,22.8,23.9,31.7,23.9h121c5.9,0,12.8-4.7,20.2-11.8,11.1-10.6,23.5-26.7,35.4-40.5,12-13.9,23.6-25.5,33.3-27.4,1.7-.3,3.7-.5,5.9-.5,24.6,0,80.8,18.3,111.5,34.8,0,0,0,0,0,0,.2.2.8.4,1.6.8,1.7.8,4.4,2.1,7.4,4.4,4.4,3.3,9.5,8.5,12.8,16.7h.1"/>
  <path class="st38" d="M291.2,353.5h0c0-5-27.1-5-27.1,0v96c0,5,27.1,5,27.1,0v-96Z"/>
  <path class="st38" d="M229.7,387.9h0c-5,0-5,27.1,0,27.1h96c5,0,5-27.1,0-27.1h-96Z"/>
  <path class="st45" d="M277.7,349.8c6.8,0,13.6,1.2,13.6,3.7v34.4h34.4c5,0,5,27.1,0,27.1h-34.4v34.4c0,2.5-6.8,3.7-13.6,3.7s-13.6-1.2-13.6-3.7v-34.4h-34.4c-5,0-5-27.1,0-27.1h34.4v-34.4c0-2.5,6.8-3.7,13.6-3.7M277.7,346.2c-3.8,0-7.5.4-10.2,1-5.8,1.4-7,4.2-7,6.3v30.8h-30.8c-2.1,0-4.9,1.2-6.3,7-.7,2.7-1,6.4-1,10.2s.4,7.4,1,10.2c1.4,5.8,4.2,7,6.3,7h30.8v31.9c.5,1.9,2.2,4,7,5.2,2.7.7,6.3,1,10.2,1s7.4-.4,10.2-1c5.8-1.4,7-4.2,7-6.3v-30.8h32.3l.3-.3c1.7-.7,3.4-2.5,4.5-6.6.7-2.7,1-6.4,1-10.2s-.4-7.4-1-10.2c-1.4-5.8-4.2-7-6.3-7h-30.8v-30.8c0-2.1-1.2-4.9-7-6.3-2.7-.7-6.4-1-10.2-1h0Z"/>
  <path class="st38" d="M277.7,452.7c-7.1,0-12.7-1.3-13-3.1v-34.6c0-.3-.2-.5-.5-.5h-34.4c-1.8,0-3.2-5.7-3.2-13.1s1.4-13.1,3.2-13.1h34.4c.3,0,.5-.2.5-.5v-34.8c.5-.9,2.1-1.6,4.5-2.1.3,0,.6-.1.9-.2.4,0,.7-.1,1-.1h.2c.3,0,.6,0,.9-.1.3,0,.7,0,1-.1h4.4c7.3,0,13.1,1.4,13.1,3.2v34.4c0,18.4.2.5.5.5h34.4c1.8,0,3.2,5.7,3.2,13.1s-1.4,13.1-3.2,13.1h-34.4c-.3,0-.5.2-.5.5v34.6c-.3,1.8-5.9,3.1-13.1,3.1v-.2Z"/>
  <path class="st49" d="M277.7,350.8c8.1,0,12.6,1.6,12.6,2.7v34.4c0,.6.4,1,1,1h34.4c1.1,0,2.7,4.8,2.7,12.6s-1.6,12.6-2.7,12.6h-34.4c-.6,0-1,.4-1,1v34.4c-.2,1.2-4.7,2.7-12.6,2.7s-12.4-1.5-12.6-2.7v-34.5c0-.6-.4-1-1-1h-34.4c-1.1,0-2.7-4.8-2.7-12.6s1.6-12.6,2.7-12.6h34.4c.6,0,1-.4,1-1v-34.4h0c.2-.4.9-1.3,4.2-1.9.3,0,.6-.1.8-.2.3,0,.6-.1.8-.1h.2c.3,0,.6-.1.9-.1s.7,0,1-.1h4.4M277.7,349.8h-4.5c-.3,0-.7,0-1,.1-.3,0-.7,0-1,.1-.3,0-.6,0-.9.1-.3,0-.6.1-.9.2-2.4.5-4.2,1.2-4.9,2.2v.2h-.1v35h-34.4c-5,0-5,27.1,0,27.1h34.4v34.7c.4,2.3,7,3.5,13.6,3.5s13.1-1.2,13.5-3.5v-34.6h34.4c5,0,5-27.1,0-27.1h-34.4v-34.4c0-2.5-6.8-3.7-13.6-3.7h-.2Z"/>
  <path class="st42" d="M264.1,387.9l-3.6-3.6h-30.8c-.9,0-1.8.2-2.8.8l2.8,2.8h34.4Z"/>
  <path class="st6" d="M229.7,387.9h0l-2.8-2.8c-1.4.9-2.7,2.7-3.5,6.1-.7,2.7-1,6.4-1,10.2s.4,7.4,1,10.2c.8,3.4,2.2,5.2,3.5,6.1l2.8-2.8c-5,0-5-27.1,0-27.1h0Z"/>
  <path class="st42" d="M269.2,350.5h0c.3,0,.6-.1.9-.2.3,0,.6-.1.9-.1s.7,0,1-.1c.3,0,.7,0,1-.1h4.5c6.8,0,13.6,1.2,13.6,3.7l2.8-2.8c-.9-1.4-2.7-2.7-6.1-3.5-2.7-.7-6.4-1-10.2-1s-7.5.4-10.2,1c-2.9.7-4.7,1.8-5.7,3l2.6,2.6c.6-1,2.4-1.7,4.9-2.2v-.3Z"/>
  <path class="st50" d="M325.7,387.9l2.8-2.8c-.9-.6-1.9-.8-2.8-.8h-30.8l-3.6,3.6h34.4Z"/>
  <path class="st9" d="M291.2,353.5h0v34.4l3.6-3.6v-30.8c0-.9-.2-1.8-.8-2.8l-2.8,2.8h0Z"/>
  <path class="st6" d="M264.1,353.5v-.2h0v-.5c.1,0-2.5-2.6-2.5-2.6-1,1.1-1.3,2.3-1.3,3.3v30.8l3.6,3.6v-34.4h.2Z"/>
  <path class="st12" d="M325.7,415h-34.4l3.6,3.6h32.3l.3-.3c.3-.1.6-.3.9-.5l-2.8-2.8h.1Z"/>
  <path class="st53" d="M291.2,449.5l2.8,2.8c.6-.9.8-1.9.8-2.8v-30.8l-3.6-3.6v34.4h0Z"/>
  <path class="st53" d="M332,391.3c-.8-3.4-2.2-5.2-3.6-6.1l-2.8,2.8c5,0,5,27.1,0,27.1l2.8,2.8c1.4-.9,2.7-2.7,3.5-6.1.7-2.7,1-6.4,1-10.2s-.4-7.4-1-10.2h.1Z"/>
  <path class="st12" d="M291.2,449.7c-.4,2.3-7,3.5-13.5,3.5s-13.1-1.2-13.5-3.5v-.2l-2.8,2.8c.9,1.4,2.7,2.7,6.2,3.5,2.7.7,6.3,1,10.2,1s7.4-.4,10.2-1c3.4-.8,5.2-2.2,6.1-3.5l-2.8-2.8v.2h-.1Z"/>
  <path class="st9" d="M264.1,449.5h0v-34.4l-3.6,3.6v31.9c.2.5.4,1.1.8,1.7l2.8-2.8h0Z"/>
  <path class="st52" d="M229.7,415l-2.8,2.8c1,.6,1.9.8,2.8.8h30.8l3.6-3.6h-34.4Z"/>
  <path class="st42" d="M264.1,387.9l-3.6-3.6,3.6,3.6Z"/>
  <path class="st9" d="M291.2,387.9l3.6-3.6-3.6,3.6Z"/>
  <path class="st10" d="M264.6,387.7v-34.6c.5-.9,2.1-1.6,4.5-2.1.3,0,.6-.1.9-.2.4,0,.7-.1,1-.1h.2c.3,0,.6,0,.9-.1.3,0,.7,0,1-.1h4.4c7.3,0,13.1,1.4,13.1,3.2v34.2l-13.1,13.1-13.1-13.1.2-.2Z"/>
  <path class="st39" d="M277.7,350.8c8.1,0,12.6,1.6,12.6,2.7v34l-12.6,12.6-12.6-12.6v-34h0c.2-.4.9-1.3,4.2-1.9.3,0,.6-.1.8-.2.3,0,.6-.1.8-.1h.2c.3,0,.6-.1.9-.1s.7,0,1-.1h4.4M277.7,349.8h-4.5c-.3,0-.7,0-1,.1-.3,0-.7,0-1,.1-.3,0-.6,0-.9.1-.3,0-.6.1-.9.2-2.4.5-4.2,1.2-4.9,2.2v.2h-.1v35l13.6,13.6,13.6-13.6v-34.4c0-2.5-6.8-3.7-13.6-3.7l-.3.2Z"/>
  <path class="st11" d="M269.2,350.5h0c.3,0,.6-.1.9-.2.3,0,.6-.1.9-.1s.7,0,1-.1c.3,0,.7,0,1-.1h4.5c6.8,0,13.6,1.2,13.6,3.7l2.8-2.8c-.9-1.4-2.7-2.7-6.1-3.5-2.7-.7-6.4-1-10.2-1s-7.5.4-10.2,1c-2.9.7-4.7,1.8-5.7,3l2.6,2.6c.6-1,2.4-1.7,4.9-2.2v-.3Z"/>
  <path class="st7" d="M291.2,353.5h0v34.4l3.6-3.6v-30.8c0-.9-.2-1.8-.8-2.8l-2.8,2.8h0Z"/>
  <path class="st5" d="M264.1,353.5v-.2h0v-.5c.1,0-2.5-2.6-2.5-2.6-1,1.1-1.3,2.3-1.3,3.3v30.8l3.6,3.6v-34.4h.2Z"/>
  <path class="st53" d="M294.9,418.7l-3.6-3.6,3.6,3.6Z"/>
  <path class="st10" d="M291.4,414.5l-13.1-13.1,13.1-13.1h34.2c1.8,0,3.2,5.7,3.2,13.1s-1.4,13.1-3.2,13.1h-34.2Z"/>
  <path class="st39" d="M325.7,388.9c1.1,0,2.7,4.8,2.7,12.6s-1.6,12.6-2.7,12.6h-34l-12.6-12.6,12.6-12.6h34M325.7,387.9h-34.4l-13.6,13.6,13.6,13.6h34.4c5,0,5-27.1,0-27.1h0Z"/>
  <path class="st8" d="M325.7,387.9l2.8-2.8c-.9-.6-1.9-.8-2.8-.8h-30.8l-3.6,3.6h34.4Z"/>
  <path class="st55" d="M325.7,415h-34.4l3.6,3.6h32.3l.3-.3c.3-.1.6-.3.9-.5l-2.8-2.8h.1Z"/>
  <path class="st41" d="M328.4,385.2l-2.8,2.8c5,0,5,27.1,0,27.1l2.8,2.8c1.4-.9,2.7-2.7,3.5-6.1.7-2.7,1-6.4,1-10.2s-.4-7.4-1-10.2c-.8-3.4-2.2-5.2-3.6-6.1h.1Z"/>
  <path class="st10" d="M277.7,452.7c-7.1,0-12.7-1.3-13-3.1v-34.4l13.1-13.1,13.1,13.1v34.4c-.3,1.8-5.9,3.1-13.1,3.1h-.1Z"/>
  <path class="st39" d="M277.7,402.9l12.6,12.6v34c-.2,1.2-4.7,2.7-12.6,2.7s-12.4-1.5-12.6-2.7v-34.1l12.6-12.6M277.7,401.5l-13.6,13.6v34.7c.4,2.3,7,3.5,13.6,3.5s13.1-1.2,13.5-3.5v-34.6l-13.6-13.6h.1Z"/>
  <path class="st41" d="M291.2,449.5l2.8,2.8c.6-.9.8-1.9.8-2.8v-30.8l-3.6-3.6v34.4h0Z"/>
  <path class="st55" d="M291.2,449.7c-.4,2.3-7,3.5-13.5,3.5s-13.1-1.2-13.5-3.5v-.2l-2.8,2.8c.9,1.4,2.7,2.7,6.2,3.5,2.7.7,6.3,1,10.2,1s7.4-.4,10.2-1c3.4-.8,5.2-2.2,6.1-3.5l-2.8-2.8v.2h-.1Z"/>
  <path class="st7" d="M264.1,449.5h0v-34.4l-3.6,3.6v31.9c.2.5.4,1.1.8,1.7l2.8-2.8h0Z"/>
  <path class="st10" d="M229.7,414.5c-1.8,0-3.2-5.7-3.2-13.1s1.4-13.1,3.2-13.1h34.2l13.1,13.1-13.1,13.1h-34.2Z"/>
  <path class="st39" d="M263.7,388.9l12.6,12.6-12.6,12.6h-34c-1.1,0-2.7-4.8-2.7-12.6s1.6-12.6,2.7-12.6h34M264.1,387.9h-34.4c-5,0-5,27.1,0,27.1h34.4l13.6-13.6-13.6-13.6h0Z"/>
  <path class="st11" d="M264.1,387.9l-3.6-3.6h-30.8c-.9,0-1.8.2-2.8.8l2.8,2.8h34.4Z"/>
  <path class="st5" d="M229.7,387.9h0l-2.8-2.8c-1.4.9-2.7,2.7-3.5,6.1-.7,2.7-1,6.4-1,10.2s.4,7.4,1,10.2c.8,3.4,2.2,5.2,3.5,6.1l2.8-2.8c-5,0-5-27.1,0-27.1h0Z"/>
  <path class="st16" d="M229.7,415l-2.8,2.8c1,.6,1.9.8,2.8.8h30.8l3.6-3.6h-34.4Z"/>
  <path class="st44" d="M448.9,280.4c0,10.4-8.4,18.8-18.8,18.8s-18.8-8.4-18.8-18.8,8.4-18.8,18.8-18.8,18.8,8.4,18.8,18.8Z"/>
  <path class="st48" d="M446.2,280.4c0,8.9-7.2,16.1-16.1,16.1s-16.1-7.2-16.1-16.1,7.2-16.1,16.1-16.1,16.1,7.2,16.1,16.1Z"/>
  <path class="st3" d="M446.2,280.4c0,8.9-7.2,16.1-16.1,16.1s-16.1-7.2-16.1-16.1,7.2-16.1,16.1-16.1,16.1,7.2,16.1,16.1Z"/>
  <rect class="st51" x="422.9" y="275.7" width="14.4" height="1.6"/>
  <rect class="st51" x="422.9" y="279.7" width="14.4" height="1.6"/>
  <rect class="st51" x="422.9" y="283.5" width="14.4" height="1.5"/>
  <path class="st47" d="M446.2,280.4c0,8.9-7.2,16.1-16.1,16.1s-16.1-7.2-16.1-16.1,7.2-16.1,16.1-16.1,16.1,7.2,16.1,16.1Z"/>
  <path class="st1" d="M446.2,280.4c0,8.9-7.2,16.1-16.1,16.1s-16.1-7.2-16.1-16.1,7.2-16.1,16.1-16.1,16.1,7.2,16.1,16.1Z"/>
  <rect class="st14" x="422.9" y="275.7" width="14.4" height="1.6"/>
  <rect class="st14" x="422.9" y="279.7" width="14.4" height="1.6"/>
  <rect class="st14" x="422.9" y="283.5" width="14.4" height="1.5"/>
  <path class="st44" d="M340.9,280.4c0,10.4-8.4,18.8-18.8,18.8s-18.8-8.4-18.8-18.8,8.4-18.8,18.8-18.8,18.8,8.4,18.8,18.8Z"/>
  <path class="st48" d="M338.2,280.4c0,8.9-7.2,16.1-16.1,16.1s-16.1-7.2-16.1-16.1,7.2-16.1,16.1-16.1,16.1,7.2,16.1,16.1Z"/>
  <path class="st3" d="M338.2,280.4c0,8.9-7.2,16.1-16.1,16.1s-16.1-7.2-16.1-16.1,7.2-16.1,16.1-16.1,16.1,7.2,16.1,16.1Z"/>
  <polygon class="st51" points="319.6 280.3 316.6 280.3 316.6 276.5 322 276.5 322 277.8 323.8 277.8 323.8 274.7 315 274.7 315 282.1 319.6 282.1 319.6 280.3"/>
  <path class="st51" d="M320.4,278.4v7.6h9v-7.6h-9ZM327.5,284.2h-5.5v-3.9h5.5v3.9Z"/>
  <path class="st43" d="M185.5,351.5c-37.3,0-67.7-30.4-67.7-67.7s30.4-67.7,67.7-67.7,67.7,30.4,67.7,67.7-30.4,67.7-67.7,67.7Z"/>
  <path class="st4" d="M185.5,351.5c-37.3,0-67.7-30.4-67.7-67.7s30.4-67.7,67.7-67.7,67.7,30.4,67.7,67.7-30.4,67.7-67.7,67.7Z"/>
  <path d="M241.6,279.9c0,31-25.1,56.1-56.1,56.1s-56.1-25.1-56.1-56.1,25.1-56.1,56.1-56.1,56.1,25.1,56.1,56.1Z"/>
  <path class="st2" d="M241.6,279.9c0,31-25.1,56.1-56.1,56.1s-56.1-25.1-56.1-56.1,25.1-56.1,56.1-56.1,56.1,25.1,56.1,56.1Z"/>
  <path class="st43" d="M473,465.5c-37.3,0-67.7-30.4-67.7-67.7s30.4-67.7,67.7-67.7,67.7,30.4,67.7,67.7-30.4,67.7-67.7,67.7Z"/>
  <path class="st4" d="M473,465.5c-37.3,0-67.7-30.4-67.7-67.7s30.4-67.7,67.7-67.7,67.7,30.4,67.7,67.7-30.4,67.7-67.7,67.7Z"/>
  <path d="M529.2,393.8c0,31-25.1,56.1-56.1,56.1s-56.1-25.1-56.1-56.1,25.1-56.1,56.1-56.1,56.1,25.1,56.1,56.1Z"/>
  <path class="st2" d="M529.2,393.8c0,31-25.1,56.1-56.1,56.1s-56.1-25.1-56.1-56.1,25.1-56.1,56.1-56.1,56.1,25.1,56.1,56.1Z"/>
  <path class="st48" d="M566.8,355.3c-13.9,0-25.2-11.3-25.2-25.2s11.3-25.2,25.2-25.2,25.2,11.3,25.2,25.2-11.3,25.2-25.2,25.2Z"/>
  <path class="st44" d="M566.8,306.4c13.1,0,23.7,10.6,23.7,23.7s-10.6,23.7-23.7,23.7-23.7-10.6-23.7-23.7,10.6-23.7,23.7-23.7M566.8,303.4c-14.7,0-26.7,12-26.7,26.7s12,26.7,26.7,26.7,26.7-12,26.7-26.7-12-26.7-26.7-26.7Z"/>
  <path class="st48" d="M566.8,254.2c-13.9,0-25.2-11.3-25.2-25.2s11.3-25.2,25.2-25.2,25.2,11.3,25.2,25.2-11.3,25.2-25.2,25.2Z"/>
  <path class="st44" d="M566.8,205.3c13.1,0,23.7,10.6,23.7,23.7s-10.6,23.7-23.7,23.7-23.7-10.6-23.7-23.7,10.6-23.7,23.7-23.7M566.8,202.3c-14.7,0-26.7,12-26.7,26.7s12,26.7,26.7,26.7,26.7-12,26.7-26.7-12-26.7-26.7-26.7Z"/>
  <path class="st48" d="M617.3,304.7c-13.9,0-25.2-11.3-25.2-25.2s11.3-25.2,25.2-25.2,25.2,11.3,25.2,25.2-11.3,25.2-25.2,25.2Z"/>
  <path class="st44" d="M617.3,255.8c13.1,0,23.7,10.6,23.7,23.7s-10.6,23.7-23.7,23.7-23.7-10.6-23.7-23.7,10.6-23.7,23.7-23.7M617.3,252.8c-14.7,0-26.7,12-26.7,26.7s12,26.7,26.7,26.7,26.7-12,26.7-26.7-12-26.7-26.7-26.7Z"/>
  <path class="st48" d="M516.2,304.7c-13.9,0-25.2-11.3-25.2-25.2s11.3-25.2,25.2-25.2,25.2,11.3,25.2,25.2-11.3,25.2-25.2,25.2Z"/>
  <path class="st44" d="M516.2,255.8c13.1,0,23.7,10.6,23.7,23.7s-10.6,23.7-23.7,23.7-23.7-10.6-23.7-23.7,10.6-23.7,23.7-23.7M516.2,252.8c-14.7,0-26.7,12-26.7,26.7s12,26.7,26.7,26.7,26.7-12,26.7-26.7-12-26.7-26.7-26.7Z"/>
  <path class="st52" d="M375.6,156.5s-88.9-1.1-100.5-3l-16.4,30.5c20.2,23.3,41.6,53.3,56.4,53.3h121c14.9,0,36.2-30,56.5-53.3l-16.4-30.5c-11.6,1.9-100.6,3-100.6,3"/>
  <path class="st15" d="M476.2,153.5l-3.6-6.8c-1.9.5-3.7.7-5.4.7h-184.3c-1.4,0-2.8-.2-4.3-.5l-3.5,6.5c11.6,1.9,100.5,3,100.5,3,0,0,88.9-1.1,100.6-3h0"/>
  <path class="st52" d="M642.5,192c-9-7.9-5.6-16.2-11.5-23.8.2.3.5.7.7,1,0,0-96.5-42.1-120.8-34.5-15.6,4.9-27.2,15.3-32.8,18.2l15.9,29.6c11.2-12.7,21.9-23,31.1-24.8,20-3.8,83.9,16.3,117.5,34.3h-.1Z"/>
  <path class="st15" d="M511,134.6c24.3-7.6,120.8,34.5,120.8,34.5-.2-.3-.5-.7-.7-1,0-.3-.2-.4-.3-.5v-.2c-.2,0-.3-.2-.4-.3l-.2-.2c0-.1-.2-.2-.3-.3l-.2-.2c0-.1-.2-.2-.3-.3l-.2-.2c0,0-.2-.2-.3-.3l-.2-.2c0-.1-.2-.2-.3-.3l-.2-.2c0,0-.2-.2-.3-.3l-.3-.2s-.2-.2-.3-.3c0,0-.2-.1-.3-.2,0,0-.2-.2-.4-.3,0,0-.2-.1-.3-.2,0,0-.3-.2-.4-.3,0,0-.2-.1-.3-.2,0,0-.3-.2-.4-.3,0,0-.2-.1-.3-.2-.2,0-.3-.2-.5-.3,0,0-.2-.1-.3-.2-.2-.1-.4-.2-.5-.3,0,0-.2-.1-.3-.2-.3-.2-.6-.3-.8-.5-18.3-9.9-72-37-114.2-31.4-7.6,1-21.6,12.3-33.8,16.3l3.6,6.7c5.6-2.9,17.3-13.4,32.8-18.2v.3Z"/>
  <path class="st15" d="M241.6,129.9c-42.2-5.6-95.9,21.5-114.2,31.4-.3.2-.6.3-.8.5,0,0-.2.1-.2.2-.2,0-.4.2-.5.3,0,0-.2.1-.3.2,0,.1-.3.2-.5.3,0,0-.2.1-.3.2,0,0-.3.2-.4.3,0,0-.2.1-.3.2,0,0-.3.2-.4.3,0,0-.2.1-.3.2,0,0-.3.2-.4.3l-.2.2c0,.1-.2.2-.4.3l-.2.2c0,.1-.2.2-.3.3l-.2.2c0,0-.2.2-.3.3l-.2.2c0,.1-.2.2-.3.3l-.2.2c0,.1-.2.2-.3.3v.2c-.2.1-.4.2-.4.3h0c0,.2-.2.4-.3.5,0,.2-.2.4-.3.5,0,.2-.2.4-.3.5,0,.2-.2.4-.3.5,0,0,97.7-42,122-34.4,15.5,4.9,27.2,15.3,32.8,18.2l3.4-6.3c-12.4-3.6-27-15.6-34.9-16.6l-.4-.3Z"/>
  <path class="st52" d="M273.6,153.1c.2,0,.3.1.5.2-.2,0-.3-.1-.5-.2Z"/>
  <path class="st52" d="M273.1,152.8c-5.6-2.9-17.3-13.4-32.8-18.2-24.2-7.6-121.3,34.1-122,34.4-5,7.4-2.2,15.3-10.8,23,33.2-17.8,99.2-38.1,118.7-34.3,9.1,1.8,19.9,12.1,31.1,24.8l15.9-29.6h0Z"/>
  <path d="M273.1,152.8c.2,0,.3.2.5.2-.2,0-.3-.2-.5-.2Z"/>
  <path d="M258,183.2c.2.3.5.6.7.8l16.4-30.5,3.5-6.5c-.3,0-.7-.1-1-.2-.3,0-.7-.2-1-.3l-3.4,6.3-15.9,29.6c.2.3.5.5.7.8"/>
  <path d="M478.1,152.8l-3.6-6.7c-.3,0-.7.2-1,.3-.3,0-.7.2-1,.3l3.6,6.8,16.4,30.5c.2-.3.5-.5.7-.8.2-.3.5-.5.7-.8l-15.9-29.6h0Z"/>
  <g class="st54">
    <g class="st29">
      <image width="105" height="5" transform="translate(323.2 143.9)" xlink:href="base-1.png"/>
    </g>
    <g class="st32">
      <image width="105" height="3" transform="translate(323.2 146.9)" xlink:href="base-2.png"/>
    </g>
  </g>
  <g class="st30">
    <g class="st31">
      <image width="105" height="12" transform="translate(323.3 237) scale(1)" xlink:href="base-3.png"/>
    </g>
    <g class="st37">
      <image width="3" height="12" transform="translate(323.3 237) scale(1)" xlink:href="base-4.png"/>
    </g>
  </g>
  <g class="st34">
    <g class="st33">
      <image width="105" height="3" transform="translate(323.2 235.9)" xlink:href="base-5.png"/>
    </g>
  </g>
  <g class="st36">
    <g class="st35">
      <image width="3" height="3" transform="translate(323.2 154.3) scale(1)" xlink:href="base-6.png"/>
    </g>
    <g class="st22">
      <image width="15" height="3" transform="translate(412.3 154.3) scale(1)" xlink:href="base-7.png"/>
    </g>
    <g class="st19">
      <image width="105" height="3" transform="translate(323.2 236.5) scale(1)" xlink:href="base-8.png"/>
    </g>
    <g class="st26">
      <image width="105" height="85" transform="translate(323.2 154.3) scale(1)" xlink:href="base-9.png"/>
    </g>
    <g class="st24">
      <image width="8" height="3" transform="translate(375.3 156.1) scale(.2)" xlink:href="base-10.png"/>
    </g>
  </g>
  <g class="st25">
    <g class="st23">
      <image width="105" height="3" transform="translate(323.2 154.9) scale(1)" xlink:href="base-11.png"/>
    </g>
    <g class="st20">
      <image width="61" height="3" transform="translate(323.2 154.9) scale(1)" xlink:href="base-12.png"/>
    </g>
    <g class="st17">
      <image width="105" height="11" transform="translate(323.2 147) scale(1)" xlink:href="base-13.png"/>
    </g>
    <g class="st21">
      <image width="427" height="3" transform="translate(324 147.2) scale(.2)" xlink:href="base-14.png"/>
    </g>
    <g class="st18">
      <image width="183" height="5" transform="translate(382.5 155.4) scale(.2)" xlink:href="base-15.png"/>
    </g>
    <g class="st27">
      <image width="156" height="4" transform="translate(376.5 155.7) scale(.2)" xlink:href="base-16.png"/>
    </g>
  </g>
  <g class="st28">
    <image width="15" height="15" transform="translate(356 168.2) scale(.2)" xlink:href="base-17.png"/>
  </g>
  <circle class="st40" cx="375" cy="196.4" r="32.6"/>
  <path class="st52" d="M549.1,5.5c-.4-.3-.8-.6-1.2-.9l-2.3,110,53.3,7.2c-12.1-116.8-43-111-49.7-116.3h0Z"/>
  <path class="st38" d="M522,0c-10.8.4-12.1,11.4-12.2,15.2v1.2s2.9,40.7,0,93.1c9.9,2.3,38.5,5.3,38.5,5.3,0,0,0-20.9.7-50.6.8-37.5-1.2-59.8-1.2-59.8C541.4,0,534.2-.4,522,0Z"/>
  <path class="st52" d="M201,5.5c.4-.3.8-.6,1.2-.9l2.3,110-53.2,7.2C163.3,5,194.2,10.8,201,5.5Z"/>
  <path class="st38" d="M228,0c10.8.4,12.1,11.4,12.2,15.2v1.2s-2.9,40.7,0,93.1c-9.9,2.3-38.5,5.3-38.5,5.3,0,0,0-20.9-.7-50.6-.8-37.5,1.2-59.8,1.2-59.8C208.6,0,215.8-.3,228,0Z"/>
  <path d="M395.5,174.5c-.6,2-1.6,4.9-2.4,6.9-.7,2.2-1.5,4.5-2.4,6.7,0-.1-.5,1.3-.3.9-3.6,9.5-7,19-10.7,28.5-.7,2.1-1.7,4.3-2.4,6.4-.2.5-.7,1.8-.9,2.4-.2.5-.4,1.3-.7,1.9l-.2.5v.3h-.5v-.6c-2.2-7.7-4.3-15.5-6.4-23.2-.3-1.1-.8-2.9-1.1-4h.1c0-.1.2.4.2.4.7,1.7,3,3.9,4.1,1.2.7-1.8.6-3.9.5-5.8-.5-4.6-1.8-9.3-3.1-13.8-.9-3-1.9-6.1-3.2-8.9-.8-1.6-2.8-4.6-3.7-1.3-.5,2.2-.3,4.5-.2,6.7.1,1.2.2,2.7.5,3.8.3,2.1.6,4.2,1.1,6.3.8,3.9,1.9,8,3,11.9,1,3.7,2.2,7.4,3.3,11.1.3.9.5,2,.8,2.9.3,1.1.7,2.5,1,3.5,0,.7-.8-1.8-.8-1.8-.3-1-.8-2.2-1.1-3.2-1.2-3.3-2.4-6.8-3.5-10-3-8.6-6-17.3-9.1-25.9,0,.1-.3-1-.3-.9-.6-1.6-1.2-3.4-1.8-5,0-.3-.7-1.9-.7-2.2s-.3-.2-.3-.9l.3-.3c2.6.7,5.6.4,8.2,1.2,2.9.5,4,4.5,5,6.8.9,2.5,1.8,5.1,2.5,7.7,1.3,4.3,2.4,8.9,2.7,13.4v4.3c.2.5.5-.6.6-.7,1.1-3.9,0-8.1-1.1-11.9.1,0,.2,0,.2.2.5,1.1,1.6,2.7,2.8,3.2,3.4,1.3,7.3-4.5,9.4-6.7,2.2-2.6,4.7-5.6,6.8-8.2.5-.5,1.4-1.6,1.9-2.2.5-.5,1.1-1.4,1.8-1.7h.1ZM376.5,216c3.3-1.9,6.6-10.6,8.1-14.3,2.3-5.8,4.7-11.6,6.8-17.5.4-1.1.9-2.3,1.2-3.4.3-.8.5-1.4.8-2.1.1-.3.3-1,.5-1.3,0-.1-.1-.2-.2-.1l-.3.4c-.1.2-.6.8-.8,1-5.9,7.6-11.7,15.6-17.6,23.3-1,1.6-1.7,3.4-2.1,5.2-.1.6-.3,1.1-.2,1.7-.3,2.2.3,8.5,3.7,7.1h.1Z"/>
  <path d="M278.6,463.4c-33.4,0-60.6-27.2-60.6-60.6s27.2-60.6,60.6-60.6,60.6,27.2,60.6,60.6c0,33.4-27.2,60.6-60.6,60.6Z"/>
  <path class="st46" d="M278.6,343.2c32.9,0,59.6,26.7,59.6,59.6s-26.7,59.6-59.6,59.6-59.6-26.7-59.6-59.6c0-32.9,26.8-59.6,59.6-59.6M278.6,341.2c-34,0-61.6,27.6-61.6,61.6s27.6,61.6,61.6,61.6,61.6-27.6,61.6-61.6c0-34-27.6-61.6-61.6-61.6Z"/>
  <path class="st38" d="M278.6,454c-7.1,0-12.7-1.3-13-3.1h0v-34.6c0-.3-.2-.5-.5-.5h-34.4c-1.8,0-3.2-5.7-3.2-13.1s1.4-13.1,3.2-13.1h34.4c.3,0,.5-.2.5-.5v-34.4h0c0-.1,0-.4,0-.4h0c.5-.9,2.1-1.6,4.5-2.1.3,0,.6-.1.9-.2.4,0,.7-.1,1-.1h.2c.3,0,.6,0,.9-.1.3,0,.7,0,1-.1.4,0,.7,0,1,0h2.4c.4,0,.7,0,1,0,7.3,0,13.1,1.4,13.1,3.2,0,.2,0,16,0,34.4s.2.5.5.5h34.4c1.8,0,3.2,5.7,3.2,13.1s-1.4,13.1-3.2,13.1h-34.4c-.3,0-.5.2-.5.5v34.6c-.3,1.8-5.9,3.1-13.1,3.1Z"/>
  <path class="st49" d="M278.6,352.1c8.1,0,12.6,1.6,12.6,2.7h0v34.4c0,.6.4,1,1,1h34.4c1.1,0,2.7,4.8,2.7,12.6s-1.6,12.6-2.7,12.6h-34.4c-.6,0-1,.4-1,1v34.4h0c-.2,1.2-4.7,2.7-12.6,2.7s-12.4-1.5-12.6-2.7h0v-34.5c0-.6-.4-1-1-1h-34.4c-1.1,0-2.7-4.8-2.7-12.6s1.6-12.6,2.7-12.6h34.4c.6,0,1-.4,1-1v-34.4h0s0,0,0,0h0s0-.1,0-.1h0c.2-.3.9-1.2,4.2-1.8h0c.3,0,.6-.1.8-.2h0c.3,0,.6-.1.8-.1h.2c.3,0,.6-.1.9-.1h0c.3,0,.7,0,1-.1h0c.3,0,.6,0,1,0h.1c.2,0,.4,0,.6,0h.4s.2,0,.2,0c.3,0,.7,0,1,0h.1c.3,0,.7,0,1,0M278.6,351.1c-.4,0-.7,0-1.1,0h-.1c-.3,0-.7,0-1,0h-.2c-.3,0-.7,0-1,0h-.1c-.3,0-.7,0-1,0h0c-.3,0-.7,0-1,.1h0c-.3,0-.7,0-1,.1h0c-.3,0-.6,0-.9.1h0c-.3,0-.6.1-.9.2h0c-2.4.5-4.2,1.2-4.9,2.2v.2c-.1,0-.1,0-.1,0v.2s0,0,0,0h0c0,.1,0,.4,0,.4v34.4h-34.4c-5,0-5,27.1,0,27.1h34.4v34.7c.4,2.3,7,3.5,13.6,3.5s13.1-1.2,13.5-3.5v-.2c0-7.7,0-20.6,0-34.4h34.4c5,0,5-27.1,0-27.1h-34.4v-34.4h0c0-2.5-6.8-3.7-13.6-3.7Z"/>
  <path class="st42" d="M265,389.2l-3.6-3.6h-30.8c-.9,0-1.8.2-2.8.8l2.8,2.8s15.5,0,34.4,0Z"/>
  <path class="st6" d="M230.6,389.2h0l-2.8-2.8c-1.4.9-2.7,2.7-3.5,6.1-.7,2.7-1,6.4-1,10.2s.4,7.4,1,10.2c.8,3.4,2.2,5.2,3.5,6.1l2.8-2.8c-5,0-5-27.1,0-27.1Z"/>
  <path class="st42" d="M270.1,351.8h0c.3,0,.6-.1.9-.2h0c.3,0,.6-.1.9-.1h0c.3,0,.7,0,1-.1h0c.3,0,.7,0,1-.1h0c.3,0,.7,0,1,0h.1c.3,0,.6,0,1,0h.2c.3,0,.7,0,1,0h.1c.4,0,.7,0,1.1,0,6.8,0,13.6,1.2,13.6,3.7l2.8-2.8c-.9-1.4-2.7-2.7-6.1-3.5-2.7-.7-6.4-1-10.2-1s-7.5.4-10.2,1c-2.9.7-4.7,1.8-5.7,3l2.6,2.6c.6-1,2.4-1.7,4.9-2.2Z"/>
  <path class="st50" d="M326.6,389.2l2.8-2.8c-.9-.6-1.9-.8-2.8-.8h-30.8l-3.6,3.6c13.8,0,26.7,0,34.4,0Z"/>
  <path class="st9" d="M292.2,354.8h0s0,15.4,0,34.4l3.6-3.6v-30.8c0-.9-.2-1.8-.8-2.8l-2.8,2.8Z"/>
  <path class="st6" d="M265,354.8v-.2s0-.1,0-.1h0s0-.2,0-.2h0s.1-.2.1-.2l-2.6-2.6c-1,1.1-1.3,2.3-1.3,3.3v30.8l3.6,3.6c0-13.8,0-26.7,0-34.4Z"/>
  <path class="st12" d="M326.6,416.4h-34.4l3.6,3.6h32.3l.3-.3c.3-.1.6-.3.9-.5l-2.8-2.8Z"/>
  <path class="st53" d="M292.2,450.8l2.8,2.8c.6-.9.8-1.9.8-2.8v-30.8l-3.6-3.6v34.4Z"/>
  <path class="st53" d="M332.9,392.6c-.8-3.4-2.2-5.2-3.6-6.1l-2.8,2.8c5,0,5,27.1,0,27.1l2.8,2.8c1.4-.9,2.7-2.7,3.5-6.1.7-2.7,1-6.4,1-10.2,0-3.8-.4-7.4-1-10.2Z"/>
  <path class="st12" d="M292.2,451c-.4,2.3-7,3.5-13.5,3.5s-13.1-1.2-13.5-3.5v-.2s-2.8,2.8-2.8,2.8c.9,1.4,2.7,2.7,6.2,3.5,2.7.7,6.3,1,10.2,1s7.4-.4,10.2-1c3.4-.8,5.2-2.2,6.1-3.5l-2.8-2.8v.2Z"/>
  <path class="st9" d="M265,450.8h0v-34.4l-3.6,3.6v31.9c.2.5.4,1.1.8,1.7l2.8-2.8Z"/>
  <path class="st52" d="M230.6,416.4l-2.8,2.8c1,.6,1.9.8,2.8.8h30.8l3.6-3.6h-34.4Z"/>
</svg>